<svg width="83" height="71" viewBox="0 0 83 71" fill="none" xmlns="http://www.w3.org/2000/svg">
<g opacity="0.8" clip-path="url(#clip0_340_183)">
<path d="M82.4044 64.6771C82.1586 64.8092 82.1639 65.077 82.0959 65.2948C81.1252 68.402 78.6509 70.4237 75.4518 70.4576C69.8773 70.5175 64.302 70.4576 58.7275 70.4469C60.0465 69.9542 60.5592 68.9973 60.5539 67.5843C60.5238 59.9329 60.5229 52.2815 60.5503 44.631C60.5583 42.5271 60.2029 40.5276 59.2986 38.6309C60.5945 38.2943 61.9126 38.206 63.2447 38.2435C66.2733 38.3274 69.3116 38.0408 72.3304 38.405C77.3232 39.0075 81.6229 43.3858 82.2567 48.4406C82.2762 48.5932 82.2408 48.7691 82.4035 48.8744V64.6771H82.4044Z" fill="#FE504A"/>
<path d="M41.6582 70.4487C37.6714 70.4594 33.6837 70.4746 29.6969 70.4791C27.8892 70.4817 26.0823 70.4639 24.2745 70.4559C23.0007 69.9551 22.4968 69.0196 22.503 67.6397C22.5339 60.4122 22.549 53.1848 22.5003 45.9583C22.4836 43.4384 22.6126 40.9757 23.6858 38.6514C25.0197 36.253 26.8125 34.3365 29.3239 33.1726C30.7365 32.5183 32.203 32.1139 33.7677 32.0934C36.3976 32.0586 39.0266 32.0202 41.6564 32.1104C41.6573 44.8898 41.6582 57.6684 41.6591 70.4478L41.6582 70.4487Z" fill="#16DBF9"/>
<path d="M41.6579 70.448C41.6579 57.6686 41.6562 44.89 41.6553 32.1106C44.4929 32.0847 47.3473 31.8696 50.1628 32.1882C54.3008 32.6569 57.3046 34.9616 59.298 38.6311C60.2014 40.5279 60.5568 42.5264 60.5497 44.6312C60.5223 52.2826 60.5232 59.934 60.5532 67.5846C60.5585 68.9976 60.0458 69.9544 58.7269 70.4472C53.0367 70.4472 47.3473 70.448 41.6579 70.4489V70.448Z" fill="#3593C6"/>
<path d="M16.6228 70.4591C13.4342 70.4644 10.2422 70.5537 7.05713 70.4519C3.74835 70.3466 0.674712 67.0457 0.65438 63.6985C0.626092 58.8944 0.525317 54.086 0.683552 49.2864C0.825874 44.9832 3.68912 40.8076 8.22046 39.0384C9.64192 38.4832 11.1111 38.1949 12.6413 38.227C13.9691 38.2547 15.2977 38.2547 16.6255 38.2663C16.6246 48.9972 16.6237 59.7281 16.6228 70.4591Z" fill="#7EFE76"/>
<path d="M55.8727 24.5387C55.8815 18.5716 60.595 13.8408 66.5124 13.8604C72.3176 13.88 77.0531 18.6573 77.0814 24.5235C77.1097 30.4656 72.2787 35.3535 66.2472 35.266C60.3519 35.1803 55.8117 30.2558 55.8727 24.5387Z" fill="#FE504A"/>
<path d="M41.5166 29.1292C37.109 29.0997 33.4325 27.3949 30.6443 23.9797C24.2336 16.1293 27.4797 4.59233 36.9967 1.23791C38.4553 0.723773 39.9607 0.403327 41.5254 0.524722C41.5227 10.0595 41.5201 19.5944 41.5174 29.1283L41.5166 29.1292Z" fill="#16DBF9"/>
<path d="M41.5166 29.1297C41.5193 19.5949 41.5219 10.0601 41.5246 0.526163C47.5525 0.322648 53.5079 4.82674 55.1239 10.8117C57.3268 18.9683 52.6655 26.8822 44.5204 28.8066C43.5339 29.0396 42.5244 29.0815 41.5166 29.1297Z" fill="#3593C6"/>
<path d="M16.623 70.4587C16.6239 59.7278 16.6248 48.9968 16.6257 38.2659C18.9842 38.2954 21.3586 38.016 23.6853 38.6506C22.613 40.975 22.483 43.4377 22.5007 45.9575C22.5493 53.1841 22.5343 60.4115 22.5034 67.6389C22.4972 69.0189 23.0019 69.9534 24.2749 70.4551C21.7246 70.456 19.1734 70.4569 16.623 70.4587Z" fill="#2FD063"/>
<path d="M16.6205 35.2481C14.1612 35.3195 11.991 34.5019 10.0763 32.9916C7.39602 30.877 6.00109 28.0251 5.98164 24.6421C5.9507 19.2669 9.6502 15.0903 14.4017 14.046C15.1327 13.8853 15.8691 13.8336 16.6143 13.8835C16.6161 21.0048 16.6178 28.1269 16.6205 35.2481Z" fill="#7EFE76"/>
<path d="M16.6204 35.248C16.6187 28.1267 16.6169 21.0046 16.6143 13.8834C22.2806 13.7843 26.9799 18.3768 27.1956 24.2234C27.4051 29.9209 22.979 34.8891 17.4169 35.2015C17.1517 35.2167 16.8865 35.2328 16.6204 35.248Z" fill="#2FD063"/>
</g>
<defs>
<clipPath id="clip0_340_183">
<rect width="81.8072" height="70" fill="white" transform="translate(0.59668 0.5)"/>
</clipPath>
</defs>
</svg>
