<svg width="324" height="148" viewBox="0 0 324 148" fill="none" xmlns="http://www.w3.org/2000/svg">
<circle cx="4.28224" cy="145.113" r="2.37892" fill="url(#paint0_linear_398_252)"/>
<circle cx="43.7721" cy="8.5641" r="8.5641" fill="url(#paint1_linear_398_252)"/>
<circle cx="3.33048" cy="81.3588" r="3.33048" fill="url(#paint2_linear_398_252)"/>
<circle cx="56.618" cy="84.2137" r="4.28205" fill="url(#paint3_linear_398_252)"/>
<circle cx="162.718" cy="110.382" r="4.28205" fill="url(#paint4_linear_398_252)"/>
<circle cx="2.37892" cy="2.37892" r="2.37892" transform="matrix(-1 0 0 1 322.097 142.734)" fill="url(#paint5_linear_398_252)"/>
<circle cx="8.5641" cy="8.5641" r="8.5641" transform="matrix(-1 0 0 1 288.792 0)" fill="url(#paint6_linear_398_252)"/>
<circle cx="3.33048" cy="3.33048" r="3.33048" transform="matrix(-1 0 0 1 324 78.0283)" fill="url(#paint7_linear_398_252)"/>
<circle cx="4.28205" cy="4.28205" r="4.28205" transform="matrix(-1 0 0 1 271.664 79.9316)" fill="url(#paint8_linear_398_252)"/>
<circle cx="4.28205" cy="4.28205" r="4.28205" transform="matrix(-1 0 0 1 165.564 106.1)" fill="url(#paint9_linear_398_252)"/>
<defs>
<linearGradient id="paint0_linear_398_252" x1="4.28224" y1="147.492" x2="4.28259" y2="142.379" gradientUnits="userSpaceOnUse">
<stop stop-color="#ED2891"/>
<stop offset="1" stop-color="#F8ED39"/>
</linearGradient>
<linearGradient id="paint1_linear_398_252" x1="43.7721" y1="17.1282" x2="43.7734" y2="-1.28037" gradientUnits="userSpaceOnUse">
<stop stop-color="#ED2891"/>
<stop offset="1" stop-color="#F8ED39"/>
</linearGradient>
<linearGradient id="paint2_linear_398_252" x1="3.33048" y1="84.6893" x2="3.33098" y2="77.5304" gradientUnits="userSpaceOnUse">
<stop stop-color="#ED2891"/>
<stop offset="1" stop-color="#F8ED39"/>
</linearGradient>
<linearGradient id="paint3_linear_398_252" x1="56.618" y1="88.4957" x2="56.6186" y2="79.2915" gradientUnits="userSpaceOnUse">
<stop stop-color="#ED2891"/>
<stop offset="1" stop-color="#F8ED39"/>
</linearGradient>
<linearGradient id="paint4_linear_398_252" x1="162.718" y1="114.664" x2="162.718" y2="105.459" gradientUnits="userSpaceOnUse">
<stop stop-color="#ED2891"/>
<stop offset="1" stop-color="#F8ED39"/>
</linearGradient>
<linearGradient id="paint5_linear_398_252" x1="2.37892" y1="4.75783" x2="2.37927" y2="-0.35566" gradientUnits="userSpaceOnUse">
<stop stop-color="#ED2891"/>
<stop offset="1" stop-color="#F8ED39"/>
</linearGradient>
<linearGradient id="paint6_linear_398_252" x1="8.5641" y1="17.1282" x2="8.56537" y2="-1.28037" gradientUnits="userSpaceOnUse">
<stop stop-color="#ED2891"/>
<stop offset="1" stop-color="#F8ED39"/>
</linearGradient>
<linearGradient id="paint7_linear_398_252" x1="3.33048" y1="6.66097" x2="3.33098" y2="-0.497924" gradientUnits="userSpaceOnUse">
<stop stop-color="#ED2891"/>
<stop offset="1" stop-color="#F8ED39"/>
</linearGradient>
<linearGradient id="paint8_linear_398_252" x1="4.28205" y1="8.5641" x2="4.28269" y2="-0.640187" gradientUnits="userSpaceOnUse">
<stop stop-color="#ED2891"/>
<stop offset="1" stop-color="#F8ED39"/>
</linearGradient>
<linearGradient id="paint9_linear_398_252" x1="4.28205" y1="8.5641" x2="4.28269" y2="-0.640187" gradientUnits="userSpaceOnUse">
<stop stop-color="#ED2891"/>
<stop offset="1" stop-color="#F8ED39"/>
</linearGradient>
</defs>
</svg>
