<svg width="70" height="71" viewBox="0 0 70 71" fill="none" xmlns="http://www.w3.org/2000/svg">
<g opacity="0.8" clip-path="url(#clip0_340_197)">
<path d="M36.5694 0.5C37.9684 0.776632 39.3937 0.957536 40.7611 1.34497C48.7691 3.61532 54.6884 10.5937 55.6947 18.8761C57.0929 30.3808 48.9726 40.7745 37.4498 42.2277C26.1169 43.6569 15.5182 35.3798 14.1682 24.0454C12.8755 13.1829 19.8667 3.32738 30.5521 0.965828C31.4566 0.766079 32.3799 0.653015 33.2943 0.5C34.3857 0.5 35.4772 0.5 36.5694 0.5ZM52.8047 27.8391C55.5477 20.664 53.4854 11.165 45.6779 5.75375C38.3807 0.695979 28.3729 1.49422 21.9237 7.5839C15.2664 13.8703 14.9416 22.8642 17.1056 27.7758C17.9408 27.0951 18.8054 26.3904 19.7204 25.6441C19.734 25.7459 19.7393 25.7173 19.7272 25.7022C17.4742 22.9441 18.9365 18.8218 22.4317 18.1253C22.5704 18.0974 22.7543 18.0183 22.8131 17.9082C23.4335 16.7467 24.3825 15.9484 25.5757 15.4291C24.0335 12.8505 24.1699 10.5726 25.9269 8.93615C27.5393 7.4339 29.9807 7.2545 31.7701 8.51404C32.6762 9.15173 33.2943 10.002 33.5807 11.0761C34.0058 12.6733 33.6282 14.1145 32.6897 15.3281C33.4895 15.9145 34.2312 16.4587 34.9247 16.9668C35.6686 16.4271 36.4247 15.8791 37.1784 15.3319C35.3641 12.95 36.096 10.2892 37.5855 8.91655C39.2513 7.38189 41.7945 7.25902 43.596 8.64897C45.647 10.2311 45.8882 12.4743 44.3045 15.4389C45.3214 15.8821 46.2063 16.5115 46.7693 17.4816C47.0181 17.9105 47.3158 18.1185 47.7907 18.2406C49.8048 18.7577 51.1706 20.5675 51.2045 22.6479C51.2241 23.8381 50.7892 24.8564 50.1749 25.6569C51.0794 26.4077 51.9417 27.123 52.8055 27.8399L52.8047 27.8391ZM41.7771 39.1056C42.1427 38.967 42.4186 38.8803 42.6802 38.7612C46.207 37.1549 48.9967 34.7074 51.0733 31.4331C51.3914 30.931 51.4615 30.4426 51.3439 29.8848C51.056 28.5205 49.813 27.4735 48.301 27.4147C47.1447 27.3703 45.9832 27.3635 44.8269 27.4162C43.2274 27.4894 41.6867 28.7926 41.7545 30.6559C41.848 33.2195 41.7779 35.7883 41.7779 38.3549C41.7779 38.5742 41.7779 38.7943 41.7779 39.1064L41.7771 39.1056ZM27.8619 39.0898C27.9252 39.022 27.9885 38.9549 28.0518 38.8871C28.0518 36.1396 28.0526 33.3913 28.0518 30.6439C28.0511 29.0595 27.2264 27.8451 25.6669 27.6213C24.2227 27.414 22.7076 27.3492 21.2687 27.5481C19.1415 27.8429 18.2709 30.0529 19.3858 31.9132C20.6204 33.9733 22.2222 35.6971 24.2332 37.0041C25.4016 37.7632 26.6498 38.3986 27.8626 39.0891L27.8619 39.0898ZM31.2463 25.6803C30.3244 24.4562 30.0003 23.0715 30.3674 21.5414C30.7435 19.9758 31.7882 18.9703 33.4036 18.157C32.6355 17.771 32.0769 17.2766 31.4867 17.2344C29.8925 17.1213 28.2832 17.1786 26.6822 17.2223C26.3694 17.2306 26.0408 17.4469 25.7589 17.6278C25.143 18.022 25.1589 18.2896 25.7754 18.6839C27.5837 19.8386 28.4204 21.8874 27.8453 23.9308C27.6651 24.5708 27.3056 25.1602 27.0463 25.7331C27.7465 26.2396 28.4536 26.7514 29.1154 27.2301C29.8269 26.713 30.5166 26.211 31.247 25.6796L31.2463 25.6803ZM44.8962 18.1133C44.257 17.7876 43.7053 17.2924 43.1196 17.2487C41.548 17.1311 39.9591 17.153 38.3829 17.2336C37.7731 17.2645 37.1626 17.5796 36.895 18.2904C39.8663 20.2102 40.443 22.706 38.7033 25.7082C39.4179 26.2358 40.1023 26.7409 40.746 27.2165C41.4591 26.6971 42.1472 26.1959 42.8354 25.6946C41.0256 22.6193 41.5065 20.7349 44.8962 18.1133ZM34.9292 20.0278C33.4397 20.0308 32.2488 21.2225 32.2443 22.7142C32.2397 24.1683 33.4985 25.4195 34.9458 25.3984C36.4277 25.3773 37.6367 24.1607 37.6307 22.6969C37.6246 21.2203 36.4149 20.0248 34.9292 20.0278ZM31.786 12.3673C31.7965 10.85 30.6568 9.66957 29.1636 9.65072C27.644 9.63188 26.484 10.7618 26.4651 12.2799C26.4463 13.81 27.5604 14.9701 29.0762 14.9987C30.5686 15.0273 31.7762 13.8545 31.786 12.3673ZM49.2455 22.7353C49.2537 21.2301 48.0945 20.0406 46.6065 20.0271C45.0975 20.0127 43.9329 21.1577 43.9156 22.6735C43.8982 24.1833 45.0394 25.3652 46.5447 25.3961C48.007 25.4263 49.2379 24.2142 49.2455 22.7353ZM38.0935 12.3281C38.0957 13.8394 39.2513 14.9964 40.7618 14.9994C42.2535 15.0017 43.4384 13.8093 43.4256 12.3183C43.4128 10.8062 42.2543 9.65148 40.7498 9.65072C39.2467 9.65072 38.0912 10.8145 38.0935 12.3281ZM20.631 22.6969C20.6235 24.1879 21.8204 25.4044 23.2888 25.3992C24.7759 25.3931 25.9699 24.1999 25.9737 22.715C25.9775 21.2195 24.7986 20.0323 23.3076 20.0286C21.8084 20.0248 20.6385 21.1901 20.631 22.6969Z" fill="#121212"/>
<path d="M57.4425 60.6434C58.038 60.7497 58.5747 60.8304 59.1038 60.9427C60.1915 61.1741 60.9234 62.1494 60.7681 63.2514C60.5186 65.0281 60.245 66.8024 59.9277 68.5678C59.6978 69.8492 58.6561 70.5238 57.3694 70.3203C50.8199 69.2816 44.2704 68.2421 37.7202 67.2065C36.169 66.9615 35.4401 65.9522 35.6971 64.4115C35.9474 62.9107 36.1848 61.407 36.417 59.9032C36.6778 58.211 37.5551 57.553 39.2473 57.7912C39.469 57.8221 39.6928 57.8394 40.0154 57.8741C40.0953 56.699 40.1639 55.5517 40.2536 54.406C40.378 52.8208 40.4481 51.2274 40.669 49.6558C40.9207 47.8701 41.8456 46.4357 43.3071 45.3586C46.6365 42.9043 49.9689 40.4538 53.2885 37.986C54.5428 37.0536 55.9274 36.7113 57.533 36.9812C57.6897 35.5076 57.8428 34.0928 57.9897 32.6772C58.3606 29.1066 58.7073 25.533 59.1053 21.9647C59.3352 19.9016 61.4872 18.5983 63.7319 19.0996C65.4091 19.4742 66.4078 20.5777 66.5857 22.3167C66.6686 23.1292 66.7229 23.9501 66.7131 24.7657C66.6249 32.1088 66.5118 39.452 66.4229 46.7952C66.3927 49.3324 65.3925 51.3691 63.3875 52.9098C62.1264 53.8791 60.8699 54.8575 59.5704 55.7741C58.4533 56.5633 57.8315 57.5907 57.7071 58.9474C57.6573 59.4886 57.5413 60.0231 57.4425 60.6427V60.6434ZM41.9014 58.1462C42.3694 58.2261 42.7034 58.2871 43.038 58.3399C46.8709 58.9392 50.7046 59.5331 54.5367 60.1369C55.5166 60.2914 55.5656 60.308 55.6485 59.3153C55.8468 56.9334 56.8998 55.1145 58.9252 53.8007C60.1417 53.0115 61.2694 52.0799 62.4053 51.1724C63.6777 50.1555 64.393 48.8334 64.4194 47.1736C64.4322 46.3784 64.4759 45.5832 64.4872 44.788C64.5784 38.5151 64.6726 32.2423 64.7465 25.9694C64.7601 24.835 64.6983 23.6991 64.6447 22.5647C64.6184 22.0024 64.4653 21.4596 63.894 21.2071C62.5342 20.6056 60.8586 21.079 60.9777 22.7132C60.9935 22.9348 60.9181 23.1624 60.8948 23.3885C60.4237 27.9744 59.9639 32.5619 59.4686 37.1455C59.4166 37.6249 59.4995 37.9264 59.8508 38.2656C61.4737 39.8312 61.7149 42.1332 60.3928 43.9603C59.896 44.647 59.2425 45.2515 58.5679 45.7724C56.7702 47.1608 54.9212 48.4837 53.0918 49.8306C52.9274 49.952 52.7654 50.0839 52.583 50.1698C52.1096 50.393 51.6837 50.2904 51.3717 49.8774C51.0543 49.4575 51.0988 49.0211 51.4508 48.6382C51.6023 48.4731 51.7976 48.3457 51.98 48.2108C53.8252 46.8457 55.6817 45.4965 57.5111 44.1111C57.9762 43.7591 58.4217 43.343 58.7631 42.8741C59.584 41.745 59.3578 40.3566 58.2799 39.4686C57.2284 38.6033 55.7835 38.5716 54.5601 39.4656C51.1674 41.9463 47.7913 44.4503 44.4129 46.9513C43.4202 47.6862 42.7328 48.6714 42.6039 49.8902C42.3159 52.6181 42.132 55.3565 41.9014 58.1447V58.1462Z" fill="black"/>
<path d="M12.3236 36.9196C12.5437 36.9196 12.7005 36.9347 12.8535 36.9174C14.2351 36.7628 15.4532 37.1616 16.5582 37.9787C19.902 40.4518 23.2502 42.9181 26.5954 45.3897C28.2959 46.6462 29.1454 48.3829 29.3248 50.4452C29.5095 52.5731 29.6172 54.7077 29.7612 56.8394C29.7823 57.1552 29.8185 57.4703 29.8562 57.8826C30.2157 57.8336 30.5429 57.7952 30.8677 57.7439C32.0225 57.5608 33.0891 58.1623 33.3115 59.2884C33.68 61.1585 33.98 63.0452 34.2228 64.9356C34.3622 66.0248 33.5888 66.9316 32.4235 67.1366C30.3213 67.5067 28.2107 67.8293 26.1024 68.1625C21.616 68.8733 17.1281 69.572 12.6432 70.2888C11.1545 70.527 10.1467 69.8698 9.89043 68.3833C9.60099 66.7047 9.34471 65.02 9.10425 63.3338C8.93541 62.1474 9.6447 61.1713 10.8093 60.9339C11.3181 60.8298 11.8329 60.7545 12.3764 60.661C12.1985 58.6394 11.9595 56.7369 9.99068 55.5271C8.69948 54.7334 7.5319 53.7331 6.33567 52.7909C4.47538 51.3256 3.48643 49.3982 3.45176 47.0216C3.3402 39.4515 3.23392 31.8807 3.15402 24.3099C3.14498 23.431 3.22262 22.5295 3.41784 21.6747C3.82714 19.8815 5.44472 18.8405 7.39471 19.0041C9.33491 19.1669 10.6012 20.4159 10.7912 22.28C11.2864 27.138 11.8058 31.993 12.3221 36.9181L12.3236 36.9196ZM27.9137 58.1788C27.7585 55.8037 27.5776 53.4972 27.4645 51.1869C27.3605 49.0666 26.3866 47.5477 24.6514 46.3311C21.5813 44.1776 18.6055 41.8907 15.5806 39.6739C15.2007 39.3957 14.7816 39.1395 14.3422 38.9789C13.109 38.5282 11.6965 39.0339 10.9924 40.1231C10.3487 41.1196 10.5206 42.3558 11.4733 43.356C11.7696 43.6666 12.111 43.9387 12.4563 44.1957C14.3346 45.594 16.2236 46.9771 18.102 48.3754C18.7389 48.8495 18.861 49.3839 18.4856 49.8852C18.1216 50.3713 17.5555 50.4022 16.9261 49.9424C15.6228 48.9904 14.3211 48.0362 13.0306 47.0668C12.0862 46.3575 11.0942 45.6935 10.2394 44.8869C8.08969 42.8585 8.09496 40.157 10.155 38.0947C10.3065 37.9432 10.4437 37.6696 10.4233 37.4691C9.91003 32.4061 9.38767 27.343 8.81707 22.286C8.77411 21.9023 8.43792 21.4342 8.10174 21.2217C6.83014 20.4189 5.26382 21.2292 5.21633 22.7247C5.15301 24.7222 5.16432 26.7234 5.18693 28.7224C5.25402 34.6802 5.37537 40.6372 5.40477 46.595C5.41532 48.7673 6.28366 50.3857 8.01129 51.6316C9.30174 52.5618 10.562 53.5349 11.8284 54.499C12.999 55.3907 13.7286 56.5575 13.9781 58.016C14.1032 58.7479 14.2351 59.4783 14.3814 60.3075C18.9243 59.5929 23.3972 58.8889 27.916 58.1781L27.9137 58.1788Z" fill="black"/>
<path d="M41.7765 39.1056C41.7765 38.7935 41.7765 38.5742 41.7765 38.3541C41.7765 35.7875 41.8466 33.2187 41.7531 30.6551C41.6853 28.7918 43.226 27.4886 44.8255 27.4154C45.9818 27.3627 47.1433 27.3687 48.2996 27.4139C49.8117 27.4727 51.0554 28.5197 51.3426 29.884C51.4601 30.4418 51.39 30.931 51.0719 31.4323C48.9961 34.7074 46.2064 37.1541 42.6788 38.7604C42.4172 38.8795 42.1413 38.9662 41.7757 39.1049L41.7765 39.1056Z" fill="#F54756"/>
<path d="M27.8617 39.0897C26.6488 38.3985 25.4006 37.7639 24.2323 37.0048C22.2212 35.6978 20.6202 33.9739 19.3848 31.9139C18.2692 30.0536 19.1406 27.8435 21.2677 27.5488C22.7066 27.3498 24.2225 27.4147 25.6659 27.6219C27.2262 27.8458 28.0501 29.0601 28.0508 30.6445C28.0524 33.392 28.0508 36.1403 28.0508 38.8877C27.9875 38.9556 27.9242 39.0227 27.8609 39.0905L27.8617 39.0897Z" fill="#0091CA"/>
<path d="M31.2461 25.6801C30.5165 26.2108 29.826 26.7128 29.1145 27.2306C28.4526 26.752 27.7456 26.2402 27.0454 25.7336C27.3047 25.1608 27.665 24.5713 27.8444 23.9314C28.4187 21.8879 27.582 19.8392 25.7745 18.6844C25.1572 18.2902 25.1421 18.0226 25.7579 17.6284C26.0406 17.4475 26.3685 17.2312 26.6813 17.2229C28.283 17.1792 29.8916 17.1219 31.4858 17.2349C32.076 17.2771 32.6345 17.7716 33.4026 18.1575C31.7873 18.9709 30.7426 19.9764 30.3665 21.542C29.9994 23.0713 30.3235 24.456 31.2453 25.6809L31.2461 25.6801Z" fill="#45BF64"/>
<path d="M44.8958 18.1131C41.5061 20.734 41.0252 22.6199 42.835 25.6953C42.1475 26.1965 41.4586 26.6978 40.7455 27.2171C40.1018 26.7415 39.4174 26.2365 38.7028 25.7088C40.4418 22.7058 39.8659 20.2109 36.8945 18.291C37.1621 17.5795 37.7727 17.2651 38.3825 17.2342C39.9586 17.1543 41.5475 17.1325 43.1191 17.2493C43.7048 17.293 44.2566 17.7882 44.8958 18.1139V18.1131Z" fill="#0091CA"/>
<path d="M34.9291 20.0281C36.4147 20.0251 37.6245 21.2198 37.6306 22.6964C37.6366 24.1602 36.4276 25.3768 34.9457 25.3979C33.4977 25.419 32.2389 24.1678 32.2442 22.7138C32.2494 21.2221 33.4404 20.0304 34.9291 20.0273V20.0281Z" fill="#FBBD80"/>
<path d="M31.7859 12.3672C31.7761 13.8544 30.5686 15.0272 29.0761 14.9986C27.5603 14.97 26.447 13.8099 26.4651 12.2798C26.4839 10.7617 27.6432 9.63178 29.1635 9.65062C30.6568 9.66947 31.7964 10.8499 31.7859 12.3672Z" fill="#FBBD80"/>
<path d="M49.2453 22.7358C49.2378 24.2146 48.0077 25.4267 46.5453 25.3966C45.0401 25.3656 43.8989 24.1837 43.9162 22.674C43.9335 21.1581 45.0974 20.0132 46.6072 20.0275C48.0951 20.0418 49.2536 21.2305 49.2461 22.7358H49.2453Z" fill="#FBBD80"/>
<path d="M38.0928 12.3278C38.0905 10.8142 39.246 9.64964 40.749 9.65039C42.2543 9.65039 43.4121 10.8052 43.4249 12.318C43.4377 13.8089 42.2528 15.0021 40.7611 14.9991C39.2506 14.9969 38.0943 13.8391 38.0928 12.3278Z" fill="#FBBD80"/>
<path d="M20.6309 22.6964C20.6384 21.1897 21.8083 20.0236 23.3075 20.0274C24.7985 20.0311 25.9766 21.2191 25.9736 22.7138C25.9698 24.1979 24.7759 25.3919 23.2887 25.3979C21.8203 25.404 20.6234 24.1874 20.6309 22.6957V22.6964Z" fill="#FBBD80"/>
<path d="M41.9014 58.1465C42.132 55.3583 42.3159 52.6199 42.6039 49.892C42.7328 48.6724 43.4195 47.688 44.4129 46.9531C47.7913 44.4521 51.1674 41.9481 54.5601 39.4674C55.7835 38.5734 57.2284 38.6051 58.28 39.4704C59.3578 40.3576 59.584 41.7468 58.7631 42.8759C58.4217 43.3448 57.9762 43.7609 57.5111 44.1129C55.6817 45.4983 53.8252 46.8483 51.98 48.2126C51.7976 48.3475 51.6023 48.4749 51.4508 48.64C51.0988 49.0229 51.0544 49.4601 51.3717 49.8792C51.6837 50.2915 52.1096 50.3948 52.583 50.1716C52.7654 50.0857 52.9275 49.9531 53.0918 49.8325C54.9212 48.4855 56.7694 47.1626 58.5679 45.7742C59.2433 45.2533 59.896 44.6488 60.3928 43.9621C61.7149 42.1342 61.4737 39.833 59.8508 38.2674C59.4995 37.9282 59.4166 37.6275 59.4686 37.1473C59.9639 32.5637 60.4237 27.9763 60.8948 23.3903C60.9181 23.1642 60.9943 22.9373 60.9777 22.715C60.8586 21.0808 62.5342 20.6067 63.894 21.2089C64.4646 21.4615 64.6184 22.0042 64.6448 22.5665C64.6975 23.7009 64.7593 24.8368 64.7465 25.9712C64.6726 32.2441 64.5784 38.5169 64.4872 44.7898C64.4759 45.585 64.4322 46.3802 64.4194 47.1754C64.393 48.8352 63.6777 50.1573 62.4053 51.1742C61.2701 52.0817 60.1418 53.0134 58.9252 53.8025C56.8998 55.1171 55.8475 56.9352 55.6486 59.3171C55.5656 60.3098 55.5166 60.2925 54.5367 60.1387C50.7046 59.5349 46.8709 58.941 43.038 58.3417C42.7034 58.2897 42.3695 58.2279 41.9014 58.148V58.1465Z" fill="#FCC99A"/>
<path d="M27.9142 58.1788C23.3946 58.8896 18.9225 59.5936 14.3796 60.3082C14.2333 59.4791 14.1014 58.7487 13.9763 58.0168C13.7268 56.5582 12.9972 55.3906 11.8266 54.4997C10.5602 53.5356 9.3007 52.5625 8.0095 51.6324C6.28186 50.3871 5.41352 48.768 5.40297 46.5957C5.37358 40.6379 5.25222 34.6809 5.18513 28.7231C5.16252 26.7242 5.15046 24.7229 5.21453 22.7254C5.26202 21.2292 6.82834 20.4189 8.09995 21.2224C8.43613 21.435 8.77231 21.9031 8.81527 22.2867C9.38587 27.3438 9.90823 32.406 10.4215 37.4698C10.4419 37.6703 10.3047 37.9432 10.1532 38.0955C8.09316 40.1578 8.08864 42.8593 10.2376 44.8877C11.0924 45.6942 12.0844 46.3583 13.0288 47.0676C14.3193 48.0369 15.621 48.9912 16.9243 49.9432C17.5537 50.403 18.1198 50.3721 18.4838 49.8859C18.8592 49.3846 18.7371 48.8502 18.1002 48.3761C16.2218 46.9779 14.3328 45.5947 12.4545 44.1965C12.1092 43.9394 11.767 43.6673 11.4715 43.3568C10.5188 42.3565 10.3469 41.1203 10.9906 40.1239C11.6947 39.0347 13.1072 38.5289 14.3404 38.9796C14.7798 39.1402 15.1989 39.3965 15.5788 39.6746C18.6044 41.8914 21.5803 44.1784 24.6496 46.3319C26.3848 47.5485 27.3587 49.0673 27.4627 51.1876C27.5758 53.4979 27.7567 55.8045 27.9119 58.1796L27.9142 58.1788Z" fill="#FCC99A"/>
<rect x="10.9639" y="62.8398" width="21.0843" height="5.90361" transform="rotate(-9.01478 10.9639 62.8398)" fill="#FF128C"/>
<rect x="38.0654" y="59.5361" width="21.0843" height="5.90361" transform="rotate(9.32738 38.0654 59.5361)" fill="#FF128C"/>
</g>
<defs>
<clipPath id="clip0_340_197">
<rect width="70" height="70" fill="white" transform="translate(0 0.5)"/>
</clipPath>
</defs>
</svg>
