<svg width="50" height="50" viewBox="0 0 50 50" fill="none" xmlns="http://www.w3.org/2000/svg">
<path fill-rule="evenodd" clip-rule="evenodd" d="M39.2185 43.267C39.0965 43.267 38.9744 43.2263 38.893 43.1449L30.7158 37.2866C19.8797 41.2911 8.9502 33.3073 8.9502 22.2744C8.9502 13.446 16.1511 6.24512 24.9794 6.24512C33.8483 6.24512 41.0086 13.446 41.0086 22.2744C41.0086 25.6104 39.9914 28.8244 38.0794 31.5094L39.7881 42.5753C39.8458 42.9348 39.4912 43.267 39.2185 43.267ZM31.2039 36.1881L38.4456 41.3955L36.9403 31.4282C36.9403 31.1841 37.0623 31.0213 37.1436 30.9399C38.9337 28.4175 39.9101 25.4477 39.9101 22.2744C39.9101 14.097 33.2382 7.42498 25.0201 7.42498C16.8427 7.42498 10.1705 14.0969 10.1705 22.2744C10.1705 30.4924 16.8426 37.1646 25.0201 37.1646C26.8508 37.1646 28.6815 36.8391 30.4309 36.1475C30.7971 35.944 31.0818 36.1068 31.2039 36.1881Z" fill="#EE4485"/>
<path fill-rule="evenodd" clip-rule="evenodd" d="M46.4197 22.844C46.0942 22.844 45.8502 22.5999 45.8502 22.2744C45.8502 10.8017 36.4931 1.44449 24.9797 1.44449C13.507 1.44449 4.14974 10.8017 4.14974 22.2744C4.14974 23.0294 3.01074 23.0294 3.01074 22.2744C3.01074 10.1507 12.8968 0.264648 25.0204 0.264648C37.1441 0.264648 47.0301 10.1507 47.0301 22.2744C46.9894 22.5999 46.7452 22.844 46.4197 22.844Z" fill="#EE4485"/>
<path fill-rule="evenodd" clip-rule="evenodd" d="M46.4202 36.8393H43.4504C43.1249 36.8393 42.8809 36.5952 42.8809 36.2697V22.2746C42.8809 21.9491 43.1249 21.7051 43.4504 21.7051H46.4202C48.3731 21.7051 50.0004 23.2917 50.0004 25.2853V33.2998C50.0004 35.2119 48.3731 36.8393 46.4202 36.8393ZM44.02 35.6595H46.4202C47.7628 35.6595 48.8206 34.6017 48.8206 33.2591V25.2853C48.8206 23.9427 47.7628 22.8849 46.4202 22.8849H44.02V35.6595Z" fill="#EE4485"/>
<path fill-rule="evenodd" clip-rule="evenodd" d="M6.55003 36.8393H3.58022C1.62736 36.8393 0 35.2527 0 33.2591V25.2853C0 23.3324 1.58664 21.7051 3.58022 21.7051H6.55003C6.87552 21.7051 7.11959 21.9491 7.11959 22.2746V36.229C7.16019 36.5545 6.87552 36.8393 6.55003 36.8393ZM3.58022 22.8442C2.23764 22.8442 1.17984 23.9019 1.17984 25.2445V33.2591C1.17984 34.6017 2.23764 35.6595 3.58022 35.6595H5.98036V22.8442L3.58022 22.8442Z" fill="#EE4485"/>
<path fill-rule="evenodd" clip-rule="evenodd" d="M20.7485 46.8879C20.7079 46.8879 20.6672 46.8879 20.6264 46.8879C14.5647 45.6674 9.23505 41.9246 6.06177 36.5544C5.65992 35.8628 6.69557 35.2851 7.07885 35.944C10.0894 41.0294 15.1342 44.6096 20.8705 45.7487C21.5878 45.9094 21.4041 46.8879 20.7485 46.8879Z" fill="#EE4485"/>
<path fill-rule="evenodd" clip-rule="evenodd" d="M26.8514 49.7354H23.1086C21.4813 49.7354 20.1387 48.3928 20.1387 46.7655C20.1387 45.0975 21.4813 43.7549 23.1086 43.7549H26.8514C28.4788 43.7549 29.8214 45.0975 29.8214 46.7655C29.862 48.3929 28.5194 49.7354 26.8514 49.7354ZM23.1086 44.9347C22.0915 44.9347 21.2778 45.7485 21.2778 46.7655C21.2778 47.7826 22.0915 48.5964 23.1086 48.5964L26.8514 48.5962C27.8685 48.5962 28.6823 47.7826 28.6823 46.7655C28.6823 45.7483 27.8685 44.9347 26.8514 44.9347H23.1086Z" fill="#EE4485"/>
<path fill-rule="evenodd" clip-rule="evenodd" d="M17.1273 25.1629C15.2966 25.1629 13.832 23.6984 13.832 21.8676C13.832 20.0367 15.2966 18.5723 17.1273 18.5723C18.9174 18.5723 20.4228 20.0368 20.4228 21.8676C20.4228 23.6983 18.958 25.1629 17.1273 25.1629ZM17.1273 19.7521C15.9475 19.7521 14.9711 20.7284 14.9711 21.9082C14.9711 23.0881 15.9476 24.0238 17.1273 24.0238C18.3072 24.0238 19.2429 23.0881 19.2429 21.9082C19.2429 20.6877 18.3072 19.7521 17.1273 19.7521Z" fill="#EE4485"/>
<path fill-rule="evenodd" clip-rule="evenodd" d="M24.9799 25.1629C23.1899 25.1629 21.6846 23.6984 21.6846 21.8676C21.6846 20.0367 23.1491 18.5723 24.9799 18.5723C26.8107 18.5723 28.2752 20.0368 28.2752 21.8676C28.2752 23.6983 26.8106 25.1629 24.9799 25.1629ZM24.9799 19.7521C23.8 19.7521 22.8644 20.6877 22.8644 21.9082C22.8644 23.0881 23.8 24.0238 24.9799 24.0238C26.1597 24.0238 27.1361 23.0881 27.1361 21.9082C27.1361 20.7283 26.1597 19.7521 24.9799 19.7521Z" fill="#EE4485"/>
<path fill-rule="evenodd" clip-rule="evenodd" d="M32.8725 25.1629C31.0417 25.1629 29.5771 23.6984 29.5771 21.8676C29.5771 20.0367 31.0418 18.5723 32.8725 18.5723C34.6626 18.5723 36.1679 20.0368 36.1679 21.8676C36.1272 23.6983 34.6627 25.1629 32.8725 25.1629ZM32.8725 19.7521C31.6926 19.7521 30.7164 20.7284 30.7164 21.9082C30.7164 23.0881 31.6927 24.0238 32.8725 24.0238C34.0523 24.0238 34.988 23.0881 34.988 21.9082C34.988 20.6877 34.0523 19.7521 32.8725 19.7521Z" fill="#EE4485"/>
</svg>
