<svg width="18" height="18" viewBox="0 0 18 18" fill="none" xmlns="http://www.w3.org/2000/svg">
<g clip-path="url(#clip0_307_173)">
<path d="M1.6875 5.0625C1.6875 11.2757 6.7243 16.3125 12.9375 16.3125H14.625C15.557 16.3125 16.3125 15.557 16.3125 14.625V13.5963C16.3125 13.2091 16.049 12.8716 15.6734 12.7777L12.356 11.9484C12.0267 11.866 11.68 11.9891 11.4764 12.2607L10.7487 13.2309C10.5375 13.5125 10.1723 13.637 9.84176 13.5159C7.36154 12.6074 5.39262 10.6385 4.48407 8.15824C4.363 7.82774 4.48752 7.46249 4.7691 7.2513L5.73932 6.52364C6.0109 6.31995 6.13396 5.97334 6.05162 5.644L5.22228 2.32661C5.12838 1.951 4.79089 1.6875 4.40372 1.6875H3.375C2.44302 1.6875 1.6875 2.44302 1.6875 3.375V5.0625Z" stroke="#D8D8D8" stroke-width="1.5" stroke-linecap="round" stroke-linejoin="round"/>
</g>
<defs>
<clipPath id="clip0_307_173">
<rect width="18" height="18" fill="white"/>
</clipPath>
</defs>
</svg>
