<svg width="72" height="70" viewBox="0 0 72 70" fill="none" xmlns="http://www.w3.org/2000/svg">
<g filter="url(#filter0_d_307_1877)">
<ellipse cx="36.0283" cy="21.7999" rx="17.0732" ry="16.7999" fill="#F53838"/>
</g>
<path d="M36.0283 5C26.5989 5 18.9551 12.5215 18.9551 21.8C18.9551 31.0785 26.5989 38.6 36.0283 38.6C45.4577 38.6 53.1016 31.0785 53.1016 21.8C53.1016 12.5215 45.4577 5 36.0283 5ZM40.0725 16.6095H37.5062C37.2021 16.6095 36.8642 17.0033 36.8642 17.5265V19.35H40.0743L39.5888 21.9505H36.8642V29.7573H33.8355V21.9505H31.0877V19.35H33.8355V17.8205C33.8355 15.626 35.3827 13.8428 37.5062 13.8428H40.0725V16.6095Z" fill="white"/>
<defs>
<filter id="filter0_d_307_1877" x="0.955078" y="0" width="70.1465" height="69.5996" filterUnits="userSpaceOnUse" color-interpolation-filters="sRGB">
<feFlood flood-opacity="0" result="BackgroundImageFix"/>
<feColorMatrix in="SourceAlpha" type="matrix" values="0 0 0 0 0 0 0 0 0 0 0 0 0 0 0 0 0 0 127 0" result="hardAlpha"/>
<feOffset dy="13"/>
<feGaussianBlur stdDeviation="9"/>
<feColorMatrix type="matrix" values="0 0 0 0 0.0658854 0 0 0 0 0.0730469 0 0 0 0 0.1375 0 0 0 0.08 0"/>
<feBlend mode="normal" in2="BackgroundImageFix" result="effect1_dropShadow_307_1877"/>
<feBlend mode="normal" in="SourceGraphic" in2="effect1_dropShadow_307_1877" result="shape"/>
</filter>
</defs>
</svg>
