<svg width="72" height="70" viewBox="0 0 72 70" fill="none" xmlns="http://www.w3.org/2000/svg">
<g filter="url(#filter0_d_307_1883)">
<ellipse cx="35.9716" cy="21.7999" rx="17.0732" ry="16.7999" fill="#F53838"/>
</g>
<path d="M41.3071 21.8C41.3071 23.1924 40.7449 24.5277 39.7444 25.5123C38.7438 26.4969 37.3867 27.05 35.9717 27.05C34.5566 27.05 33.1996 26.4969 32.199 25.5123C31.1984 24.5277 30.6363 23.1924 30.6363 21.8C30.6363 21.5008 30.6683 21.2085 30.7234 20.925H28.8578V27.9198C28.8578 28.4063 29.258 28.8 29.7524 28.8H42.1927C42.4297 28.7995 42.6568 28.7066 42.8241 28.5416C42.9915 28.3765 43.0855 28.1529 43.0855 27.9198V20.925H41.2199C41.2751 21.2085 41.3071 21.5008 41.3071 21.8ZM35.9717 25.3C36.4389 25.2999 36.9015 25.2092 37.3331 25.0332C37.7647 24.8571 38.1569 24.5992 38.4872 24.274C38.8175 23.9488 39.0794 23.5628 39.2581 23.138C39.4368 22.7133 39.5287 22.258 39.5286 21.7983C39.5285 21.3385 39.4363 20.8833 39.2574 20.4586C39.0785 20.0339 38.8164 19.648 38.4859 19.323C38.1555 18.998 37.7632 18.7402 37.3315 18.5644C36.8998 18.3886 36.4371 18.2981 35.9699 18.2983C35.0263 18.2985 34.1215 18.6675 33.4544 19.3243C32.7874 19.981 32.4127 20.8715 32.413 21.8C32.4132 22.7285 32.7883 23.6189 33.4557 24.2752C34.123 24.9316 35.0281 25.3002 35.9717 25.3ZM40.24 18.125H42.3724C42.514 18.125 42.6499 18.0697 42.7503 17.9713C42.8506 17.8729 42.9072 17.7394 42.9077 17.6V15.5018C42.9077 15.362 42.8513 15.2281 42.7509 15.1293C42.6505 15.0305 42.5143 14.975 42.3724 14.975H40.24C40.098 14.975 39.9618 15.0305 39.8615 15.1293C39.7611 15.2281 39.7047 15.362 39.7047 15.5018V17.6C39.7064 17.8888 39.9465 18.125 40.24 18.125ZM35.9717 5C31.4436 5 27.1009 6.76999 23.8991 9.92061C20.6972 13.0712 18.8984 17.3444 18.8984 21.8C18.8984 26.2556 20.6972 30.5288 23.8991 33.6794C27.1009 36.83 31.4436 38.6 35.9717 38.6C38.2138 38.6 40.4339 38.1655 42.5053 37.3212C44.5767 36.4769 46.4589 35.2394 48.0443 33.6794C49.6297 32.1194 50.8873 30.2674 51.7453 28.2291C52.6033 26.1908 53.0449 24.0062 53.0449 21.8C53.0449 19.5938 52.6033 17.4092 51.7453 15.3709C50.8873 13.3326 49.6297 11.4806 48.0443 9.92061C46.4589 8.36058 44.5767 7.1231 42.5053 6.27882C40.4339 5.43454 38.2138 5 35.9717 5ZM44.864 28.6058C44.864 29.675 43.9748 30.55 42.8881 30.55H29.0552C27.9686 30.55 27.0794 29.675 27.0794 28.6058V14.9943C27.0794 13.925 27.9686 13.05 29.0552 13.05H42.8881C43.9748 13.05 44.864 13.925 44.864 14.9943V28.6058Z" fill="white"/>
<defs>
<filter id="filter0_d_307_1883" x="0.898438" y="0" width="70.1465" height="69.5996" filterUnits="userSpaceOnUse" color-interpolation-filters="sRGB">
<feFlood flood-opacity="0" result="BackgroundImageFix"/>
<feColorMatrix in="SourceAlpha" type="matrix" values="0 0 0 0 0 0 0 0 0 0 0 0 0 0 0 0 0 0 127 0" result="hardAlpha"/>
<feOffset dy="13"/>
<feGaussianBlur stdDeviation="9"/>
<feColorMatrix type="matrix" values="0 0 0 0 0.0658854 0 0 0 0 0.0730469 0 0 0 0 0.1375 0 0 0 0.08 0"/>
<feBlend mode="normal" in2="BackgroundImageFix" result="effect1_dropShadow_307_1883"/>
<feBlend mode="normal" in="SourceGraphic" in2="effect1_dropShadow_307_1883" result="shape"/>
</filter>
</defs>
</svg>
