<svg width="41" height="42" viewBox="0 0 41 42" fill="none" xmlns="http://www.w3.org/2000/svg">
<g opacity="0.4" clip-path="url(#clip0_307_2987)">
<path d="M22.3449 40.1923H9.32048C5.81202 40.1923 4.0578 40.1923 2.96787 39.1098C1.87793 38.0273 1.87793 36.2851 1.87793 32.8008C1.87793 29.3164 1.87793 27.5742 2.96787 26.4917C4.0578 25.4092 5.81202 25.4092 9.32048 25.4092H31.6481C35.1565 25.4092 36.9107 25.4092 38.0007 26.4917C39.0907 27.5742 39.0907 29.3164 39.0907 32.8008C39.0907 36.2851 39.0907 38.0273 38.0007 39.1098C36.9107 40.1923 35.1565 40.1923 31.6481 40.1923H29.7875" stroke="#F53838" stroke-width="2.93114" stroke-linecap="round"/>
<path d="M18.6237 2.21582H31.6481C35.1565 2.21582 36.9107 2.21582 38.0007 3.31696C39.0907 4.41808 39.0907 6.19033 39.0907 9.73483C39.0907 13.2793 39.0907 15.0516 38.0007 16.1527C36.9107 17.2538 35.1565 17.2538 31.6481 17.2538H9.32048C5.81202 17.2538 4.0578 17.2538 2.96787 16.1527C1.87793 15.0516 1.87793 13.2793 1.87793 9.73483C1.87793 6.19033 1.87793 4.41808 2.96787 3.31696C4.0578 2.21582 5.81202 2.21582 9.32048 2.21582H11.1811" stroke="#F53838" stroke-width="2.93114" stroke-linecap="round"/>
<path d="M18.7852 10.3721H30.6796" stroke="#F53838" stroke-width="2.93114" stroke-linecap="round"/>
<path d="M10.2891 10.3721H13.6875" stroke="#F53838" stroke-width="2.93114" stroke-linecap="round"/>
<path d="M18.7852 32.377H30.6796" stroke="#F53838" stroke-width="2.93114" stroke-linecap="round"/>
<path d="M10.2891 32.377H13.6875" stroke="#F53838" stroke-width="2.93114" stroke-linecap="round"/>
</g>
<defs>
<clipPath id="clip0_307_2987">
<rect width="40.7811" height="40.7811" fill="#F53838" transform="translate(0.09375 0.941406)"/>
</clipPath>
</defs>
</svg>