<svg width="41" height="42" viewBox="0 0 41 42" fill="none" xmlns="http://www.w3.org/2000/svg">
<g opacity="1" clip-path="url(#clip0_307_2974)">
<path d="M28.5801 37.6835C27.7004 35.931 25.9077 34.8232 23.9404 34.8232H21.644V24.8253C23.2353 24.3352 24.3969 22.858 24.3969 21.1123C24.3969 18.9704 22.6579 17.2246 20.5093 17.2246C18.3607 17.2246 16.6217 18.9636 16.6217 21.1123C16.6217 22.8648 17.7833 24.3419 19.3746 24.8253V34.8232H17.0916C15.131 34.8232 13.3383 35.9311 12.4519 37.6835L11.3575 39.8523C10.9815 40.6043 11.5253 41.4973 12.3714 41.4973H28.654C29.5 41.4973 30.0439 40.6043 29.6679 39.8523L28.5801 37.6835ZM18.8977 21.1121C18.8977 20.2191 19.6296 19.4939 20.5159 19.4939C21.409 19.4939 22.1342 20.2258 22.1342 21.1121C22.1342 21.9984 21.4023 22.7304 20.5159 22.7304C19.6297 22.7304 18.8977 22.0052 18.8977 21.1121ZM14.2178 39.2345L14.4797 38.7041C14.9765 37.7103 15.9837 37.0926 17.0983 37.0926H23.947C25.0616 37.0926 26.0687 37.7103 26.5656 38.7041L26.8275 39.2345H14.2178Z" fill="#fff"/>
<path d="M26.5587 38.7042C26.0619 37.7105 25.0547 37.0928 23.9401 37.0928H17.0914C15.9768 37.0928 14.9831 37.7105 14.4728 38.7042L14.2109 39.2347H26.8274L26.5587 38.7042Z" fill="#fff"/>
<path d="M34.9388 6.69013C26.9821 -1.2665 14.0501 -1.2665 6.09345 6.69013C-1.86318 14.6468 -1.86318 27.5788 6.09345 35.5354C6.53664 35.9786 7.24832 35.9786 7.69826 35.5354C8.14145 35.0922 8.14145 34.3806 7.69826 33.9306C0.627901 26.8603 0.627901 15.3584 7.69826 8.28808C14.7686 1.21773 26.2704 1.21773 33.3408 8.28808C40.4112 15.3584 40.4112 26.8603 33.3408 33.9306C32.8976 34.3738 32.8976 35.0855 33.3408 35.5354C33.7638 35.9585 34.442 35.9988 34.9456 35.5354C42.8954 27.5788 42.8954 14.6468 34.9388 6.69013Z" fill="#fff"/>
<path d="M31.0442 10.5844C25.2429 4.78306 15.7957 4.78306 9.98773 10.5844C4.18638 16.3857 4.18638 25.8397 9.98773 31.6477C10.4309 32.0909 11.1426 32.0909 11.5925 31.6477C12.0357 31.2045 12.0357 30.4928 11.5925 30.0429C6.55002 25.1614 6.69772 17.0974 11.5925 12.1824C16.5142 7.26064 24.5313 7.26064 29.453 12.1824C34.1666 16.8758 34.5157 24.913 29.453 30.0429C29.0099 30.4861 29.0099 31.1977 29.453 31.6477C29.829 32.017 30.5073 32.1647 31.0579 31.6477C36.8455 25.8397 36.8455 16.3856 31.0442 10.5844Z" fill="#fff"/>
<path d="M25.5587 27.7534C25.9952 28.1697 26.68 28.2167 27.1635 27.7534C30.8229 24.094 30.8229 18.1382 27.1635 14.4789C23.5042 10.8195 17.5484 10.8195 13.889 14.4789C10.2297 18.1382 10.2297 24.094 13.889 27.7534C14.3322 28.1966 15.0439 28.1966 15.4938 27.7534C15.937 27.3102 15.937 26.5985 15.4938 26.1486C12.714 23.3687 12.714 18.8499 15.4938 16.0768C18.2737 13.3038 22.7925 13.297 25.5656 16.0768C28.3386 18.8567 28.3454 23.3755 25.5656 26.1486C25.1088 26.5917 25.1088 27.3102 25.5587 27.7534Z" fill="#fff"/>
<path d="M20.5157 22.7306C21.4087 22.7306 22.1339 21.9987 22.1339 21.1123C22.1339 20.2261 21.402 19.4941 20.5157 19.4941C19.6294 19.4941 18.8975 20.226 18.8975 21.1123C18.8975 21.9987 19.6226 22.7306 20.5157 22.7306Z" fill="#fff"/>
</g>
<defs>
<clipPath id="clip0_307_2974">
<rect width="40.7811" height="40.7811" fill="white" transform="translate(0.125977 0.719727)"/>
</clipPath>
</defs>
</svg>
