<svg width="51" height="42" viewBox="0 0 51 42" fill="none" xmlns="http://www.w3.org/2000/svg">
<g opacity="0.4" clip-path="url(#clip0_307_2998)">
<path d="M46.3496 12.469H28.6664L37.0319 5.63987C37.6822 5.10896 37.6822 4.24832 37.0319 3.71741C36.3815 3.18661 35.3272 3.18661 34.6769 3.71741L25.5171 11.195L13.4422 1.33755C12.7919 0.806644 11.7377 0.806861 11.0872 1.33755C10.4369 1.86847 10.4369 2.7291 11.0872 3.26001L22.3677 12.469H4.68475C3.76515 12.469 3.01953 13.0776 3.01953 13.8283V34.2244C3.01953 34.9749 3.76515 35.5837 4.68475 35.5837H18.6608V36.657L11.9372 39.1207C11.0982 39.4281 10.7233 40.2327 11.0999 40.9174C11.3772 41.4216 11.9842 41.7204 12.6201 41.7204C12.8479 41.7204 13.0797 41.6819 13.3011 41.6008L20.6825 38.896H30.3522L37.7336 41.6008C37.9552 41.6819 38.1866 41.7204 38.4147 41.7204C39.0502 41.7204 39.6574 41.4216 39.9347 40.9174C40.3113 40.2325 39.9365 39.4281 39.0975 39.1207L32.3738 36.657V35.5837H46.3496C47.2692 35.5837 48.0148 34.9749 48.0148 34.2244V13.8283C48.0148 13.0775 47.2695 12.469 46.3496 12.469ZM29.0432 36.1774H21.991V35.5835H29.0432V36.1774ZM44.6844 32.8648H6.34996V15.1877H44.6845L44.6844 32.8648Z" fill="#F53838"/>
</g>
<defs>
<clipPath id="clip0_307_2998">
<rect width="49.9568" height="40.7811" fill="white" transform="translate(0.538086 0.941406)"/>
</clipPath>
</defs>
</svg>
