<svg width="71" height="70" viewBox="0 0 71 70" fill="none" xmlns="http://www.w3.org/2000/svg">
<g filter="url(#filter0_d_307_1880)">
<ellipse cx="35.4999" cy="21.7999" rx="17.0732" ry="16.7999" fill="#F53838"/>
</g>
<path d="M35.5 5C26.0706 5 18.4268 12.5215 18.4268 21.8C18.4268 31.0785 26.0706 38.6 35.5 38.6C44.9294 38.6 52.5732 31.0785 52.5732 21.8C52.5732 12.5215 44.9294 5 35.5 5ZM42.4449 18.762C42.452 18.9055 42.4538 19.049 42.4538 19.189C42.4538 23.564 39.0729 28.6058 32.8874 28.6058C31.0597 28.6087 29.27 28.0922 27.7334 27.1183C27.9949 27.1498 28.2634 27.162 28.5355 27.162C30.1113 27.162 31.5607 26.6353 32.7114 25.7463C32.0101 25.7327 31.3307 25.5042 30.7677 25.0927C30.2047 24.6811 29.7862 24.107 29.5706 23.4503C30.0742 23.5445 30.593 23.5247 31.0876 23.3925C30.3265 23.2411 29.6421 22.8353 29.1504 22.2439C28.6586 21.6526 28.3899 20.9121 28.3897 20.148V20.1078C28.8432 20.3545 29.3625 20.505 29.9138 20.5225C29.2003 20.0551 28.6952 19.3372 28.5018 18.5155C28.3084 17.6938 28.4414 16.8304 28.8734 16.102C29.7181 17.124 30.7715 17.9601 31.9654 18.556C33.1593 19.152 34.4671 19.4947 35.8041 19.5618C35.6341 18.8518 35.7073 18.1065 36.0122 17.4416C36.3171 16.7768 36.8367 16.2297 37.4902 15.8855C38.1437 15.5412 38.8945 15.419 39.6258 15.5379C40.3572 15.6568 41.0281 16.0102 41.5343 16.543C42.2869 16.3965 43.0086 16.1248 43.6685 15.7398C43.4176 16.5065 42.8925 17.1576 42.1906 17.572C42.8572 17.493 43.5082 17.3166 44.122 17.0488C43.6711 17.7136 43.1032 18.2938 42.4449 18.762Z" fill="white"/>
<defs>
<filter id="filter0_d_307_1880" x="0.426758" y="0" width="70.1465" height="69.5996" filterUnits="userSpaceOnUse" color-interpolation-filters="sRGB">
<feFlood flood-opacity="0" result="BackgroundImageFix"/>
<feColorMatrix in="SourceAlpha" type="matrix" values="0 0 0 0 0 0 0 0 0 0 0 0 0 0 0 0 0 0 127 0" result="hardAlpha"/>
<feOffset dy="13"/>
<feGaussianBlur stdDeviation="9"/>
<feColorMatrix type="matrix" values="0 0 0 0 0.0658854 0 0 0 0 0.0730469 0 0 0 0 0.1375 0 0 0 0.08 0"/>
<feBlend mode="normal" in2="BackgroundImageFix" result="effect1_dropShadow_307_1880"/>
<feBlend mode="normal" in="SourceGraphic" in2="effect1_dropShadow_307_1880" result="shape"/>
</filter>
</defs>
</svg>
