<svg width="52" height="71" viewBox="0 0 52 71" fill="none" xmlns="http://www.w3.org/2000/svg">
<g opacity="0.8" clip-path="url(#clip0_340_218)">
<path d="M19.498 60.2498C17.3989 57.86 15.2539 55.5097 13.2883 53.0094C9.24977 47.8725 5.64221 42.4806 3.20044 36.4097C1.70683 32.6939 0.659042 28.8648 0.837088 24.828C1.28079 14.7947 6.06472 7.34574 15.2058 2.97673C28.9585 -3.59589 45.2589 3.44581 49.9799 17.7481C51.8833 23.5146 51.4107 29.2102 49.3836 34.8454C47.0683 41.2797 43.3873 46.9489 39.223 52.3464C37.109 55.0865 34.7853 57.6529 32.4975 60.2484C32.3823 60.6932 31.9909 60.9392 31.7133 61.2575C30.4747 62.6765 29.109 63.9788 27.7107 65.2401C26.6637 66.1852 25.3594 66.2075 24.2897 65.2352C22.6336 63.73 20.9839 62.2061 19.5736 60.4604C19.5256 60.4013 19.5079 60.3249 19.4987 60.2484L19.498 60.2498Z" fill="#EC4848"/>
<path d="M19.4977 60.251C20.9885 61.7409 22.4729 63.2378 23.9722 64.7194C25.369 66.1002 26.6224 66.1002 28.022 64.7187C29.522 63.2378 31.0064 61.7409 32.4972 60.251C33.9943 60.7478 35.413 61.3858 36.5392 62.5185C38.0201 64.0084 38.0265 65.8139 36.5244 67.2816C34.8718 68.8966 32.7628 69.6214 30.5443 70.0349C26.2437 70.8368 22.0094 70.6874 17.9362 68.9264C16.9429 68.497 16.0392 67.9181 15.2995 67.1189C14.0404 65.7576 14.0298 64.0369 15.2945 62.6825C16.4412 61.4546 17.9278 60.7805 19.497 60.2517L19.4977 60.251Z" fill="#FAAF3B"/>
<path d="M4.84645 25.2632C4.86764 13.7788 14.3472 4.49945 26.0325 4.52446C37.7659 4.55018 47.1854 13.8664 47.1472 25.4084C47.1098 36.8733 37.5794 46.1805 25.923 46.1353C14.256 46.0901 4.82454 36.7503 4.84574 25.2632H4.84645Z" fill="#F1F1F1"/>
<path d="M11.6455 34.4138C12.3973 34.1796 13.1702 34.3047 13.929 34.3221C14.572 34.3367 14.7493 34.1414 14.7472 33.5118C14.7246 27.1991 14.7444 20.887 14.7182 14.5743C14.7154 13.9051 14.8963 13.5417 15.5314 13.2387C18.6706 11.7397 21.7821 10.1852 24.905 8.65355C25.1558 8.53055 25.4215 8.43951 25.6808 8.33319C25.7988 8.31998 25.8843 8.36793 25.9047 8.4826C25.9266 8.60699 25.9153 8.73485 25.9175 8.86133C26.0227 17.0497 26.1118 25.2387 26.0588 33.4277C26.0566 33.7286 26.0899 34.0392 25.9019 34.3096C24.7008 34.6702 23.4926 34.5896 22.2816 34.3624C22.0231 34.0663 22.0541 33.7022 22.0506 33.3519C22.04 32.215 22.052 31.0775 22.045 29.9399C22.0386 28.9732 21.9976 28.9371 20.9852 28.9287C20.6001 28.9253 20.2143 28.926 19.8286 28.9287C18.737 28.9371 18.6868 28.9816 18.6804 30.0274C18.6734 31.1143 18.6847 32.2012 18.6769 33.2873C18.6677 34.5451 18.5271 34.6869 17.2646 34.6939C15.7483 34.7022 14.2321 34.7043 12.7166 34.6904C12.3436 34.6869 11.9324 34.764 11.6462 34.4124L11.6455 34.4138Z" fill="#CBCBCB"/>
<path d="M22.3311 34.3072C23.5011 34.3016 24.6718 34.296 25.8418 34.2912C25.993 34.0306 25.9181 33.747 25.9181 33.4746C25.9231 27.6908 25.9181 21.9076 25.933 16.1237C25.933 15.8839 25.6913 15.4107 26.3074 15.4746C29.7355 16.7554 33.1587 18.0479 36.5959 19.303C37.1378 19.501 37.2558 19.7957 37.2537 20.3134C37.2368 24.6873 37.2573 29.0611 37.2297 33.435C37.2255 34.107 37.3738 34.3843 38.115 34.3377C38.7968 34.2946 39.497 34.2231 40.1788 34.4031C39.952 34.7255 39.5973 34.6949 39.2723 34.6956C33.9111 34.7081 28.5507 34.7116 23.1895 34.688C22.8843 34.6866 22.4342 34.8263 22.3311 34.3072Z" fill="#B2B2B2"/>
<path d="M22.3317 34.3074C22.4617 34.4839 22.6553 34.4311 22.8277 34.4311C28.5357 34.4339 34.2431 34.4332 39.9512 34.4318C40.0275 34.4318 40.1038 34.4131 40.1794 34.4033C40.6909 34.5215 40.922 34.8418 40.8266 35.347C40.7333 35.8446 40.3369 35.9551 39.8982 35.9565C38.2555 35.9614 36.6121 35.9593 34.9694 35.9593C27.5247 35.9593 20.0793 35.9593 12.6345 35.9593C12.4289 35.9593 12.224 35.9607 12.0184 35.9579C11.5684 35.9523 11.1833 35.7994 11.071 35.3429C10.9579 34.8849 11.1946 34.5673 11.6468 34.4131C13.7268 34.4165 15.8076 34.411 17.8876 34.4311C18.3377 34.4353 18.4556 34.263 18.4507 33.8488C18.433 32.3582 18.4712 30.8668 18.4302 29.3776C18.414 28.7932 18.6118 28.6361 19.177 28.6667C19.9966 28.7105 20.8218 28.7042 21.6421 28.6681C22.1466 28.6459 22.3041 28.8099 22.2999 29.3081C22.2858 30.9739 22.3183 32.6403 22.3324 34.306L22.3317 34.3074Z" fill="#3FA8F4"/>
<path d="M26.3076 15.4753C25.7968 15.5962 26.0074 16.0062 26.0066 16.2884C25.9939 22.0041 25.9996 27.7199 25.9911 33.435C25.9911 33.7206 26.1232 34.0465 25.842 34.2918C25.842 25.9256 25.8434 17.5601 25.8378 9.19454C25.8378 8.90545 25.9529 8.58161 25.6816 8.33422C26.2101 8.22929 25.9854 8.64207 25.9869 8.81997C26.0038 10.7505 26.001 12.681 25.9946 14.6108C25.9932 14.943 25.9763 15.2668 26.3083 15.4753H26.3076Z" fill="#D4D4D4"/>
<path d="M19.2236 19.1291C19.2264 19.7657 19.006 20.1472 18.4874 20.1402C17.9702 20.1333 17.6551 19.8067 17.6643 19.2514C17.6727 18.7288 17.9871 18.4231 18.4626 18.4161C18.9678 18.4085 19.213 18.774 19.2236 19.1291Z" fill="#42A9F3"/>
<path d="M21.5059 19.4187C21.5031 18.7932 21.7475 18.4235 22.247 18.4152C22.7204 18.4069 23.0518 18.705 23.0638 19.229C23.0758 19.762 22.8193 20.14 22.2788 20.1456C21.7779 20.1504 21.5313 19.7842 21.5066 19.4187H21.5059Z" fill="#41A9F3"/>
<path d="M23.0688 15.965C23.0483 16.4751 22.8166 16.8434 22.2528 16.8267C21.7342 16.8115 21.5109 16.4612 21.5088 15.9664C21.5074 15.4577 21.7398 15.1575 22.2775 15.1534C22.8145 15.1492 23.0504 15.4508 23.0688 15.965Z" fill="#41A9F4"/>
<path d="M17.6602 22.5264C17.7061 22.0789 17.9435 21.7273 18.4543 21.7266C18.9595 21.7266 19.228 22.0289 19.2244 22.5528C19.2209 23.0921 18.9856 23.4389 18.4225 23.425C17.8968 23.4118 17.6898 23.0448 17.6602 22.5271V22.5264Z" fill="#41A9F4"/>
<path d="M19.2234 16.0438C19.2425 16.5261 18.9585 16.8346 18.4455 16.8242C17.934 16.8138 17.6606 16.4684 17.6733 15.9673C17.686 15.4802 17.9057 15.1369 18.4674 15.1508C19.022 15.1647 19.2291 15.4906 19.2227 16.0431L19.2234 16.0438Z" fill="#40A9F4"/>
<path d="M23.07 22.5851C23.0467 23.1209 22.7945 23.4149 22.254 23.3989C21.7022 23.3829 21.4938 23.0528 21.5107 22.5462C21.5277 22.0382 21.7863 21.7019 22.3091 21.7269C22.8206 21.7519 23.0531 22.1119 23.07 22.5851Z" fill="#40A9F4"/>
<path d="M28.912 21.9418C28.9325 21.3171 29.1678 20.9585 29.6871 20.9731C30.2304 20.9884 30.4826 21.3602 30.4713 21.8897C30.46 22.4109 30.1371 22.716 29.6574 22.6916C29.1798 22.6673 28.8838 22.3372 28.912 21.9425V21.9418Z" fill="#40A8F3"/>
<path d="M32.7653 21.8203C32.7166 21.2998 32.9921 20.9843 33.498 20.9711C34.0724 20.9558 34.3041 21.3825 34.3013 21.8745C34.2985 22.3533 34.0116 22.7161 33.4966 22.6973C32.9893 22.6792 32.7321 22.3429 32.7653 21.8203Z" fill="#42A9F2"/>
<path d="M30.4744 25.2084C30.401 25.6726 30.1918 26.0041 29.6379 25.9673C29.0345 25.927 28.8932 25.5392 28.9201 25.0278C28.9455 24.5483 29.1928 24.2703 29.6874 24.2911C30.2561 24.3148 30.4716 24.6754 30.4751 25.2091L30.4744 25.2084Z" fill="#40A8F3"/>
<path d="M30.4808 28.3852C30.4455 28.9453 30.2123 29.2726 29.6888 29.2879C29.1469 29.3039 28.9258 28.9828 28.9173 28.4769C28.9081 27.9384 29.1243 27.611 29.7128 27.6104C30.2879 27.6104 30.4116 28.0044 30.4815 28.3852H30.4808Z" fill="#40A8F3"/>
<path d="M34.3248 25.1158C34.2732 25.6294 34.0414 25.9588 33.5073 25.9622C32.9484 25.9664 32.7577 25.6224 32.7598 25.12C32.7619 24.6148 32.9661 24.2701 33.52 24.2909C34.0421 24.3104 34.2668 24.6592 34.3248 25.1158Z" fill="#40A8F3"/>
<path d="M34.325 28.4642C34.2657 28.9208 34.0389 29.2696 33.5174 29.2863C32.9635 29.3044 32.7622 28.9569 32.7607 28.4531C32.7593 27.9493 32.9529 27.6088 33.5118 27.6143C34.0459 27.6199 34.277 27.95 34.3257 28.4635L34.325 28.4642Z" fill="#40A8F3"/>
</g>
<defs>
<clipPath id="clip0_340_218">
<rect width="50.3659" height="70" fill="white" transform="translate(0.817383 0.5)"/>
</clipPath>
</defs>
</svg>
