<svg width="106" height="62" viewBox="0 0 106 62" fill="none" xmlns="http://www.w3.org/2000/svg">
<path d="M54.3184 25.2548C54.2562 25.2548 54.1843 25.2548 54.1156 25.2481H54.0339C53.8932 25.2481 53.7559 25.2615 53.6087 25.2683C53.3929 25.2817 53.1705 25.2952 52.9547 25.2952C52.3693 25.2952 51.8951 25.2043 51.4439 25.0092C51.3163 24.9554 51.2019 24.8915 51.0939 24.8276C50.4791 25.2178 49.7237 25.2582 48.8408 25.2649C48.5988 25.3187 48.3633 25.3423 48.1377 25.3423C47.7125 25.3423 47.1239 25.2447 46.5843 24.8478C46.3488 25.2985 46.0513 25.7156 45.6948 26.089C44.7235 27.088 43.4482 27.6363 42.0845 27.643H42.0779C39.2786 27.643 37.0026 25.2985 36.996 22.4158C36.9895 21.1612 37.4015 19.9738 38.17 19.042C37.7187 18.7023 37.3525 18.1809 37.1726 17.4039C37.153 17.3333 37.1105 17.2525 37.0778 17.1684C37.0222 17.044 36.9699 16.9195 36.9175 16.7951C36.6559 16.1089 36.391 15.4058 36.512 14.6591C36.1621 14.3967 35.8318 13.9864 35.5931 13.3607L35.5669 13.3035C35.1091 12.143 34.7494 11.2348 34.9129 10.3401C34.939 10.145 34.9881 9.95999 35.0764 9.76489C34.8802 9.82208 34.684 9.88935 34.491 9.95999C31.5086 10.9792 28.8564 12.7855 26.5346 15.3789L27.3979 10.3872H8.95387L0 62H18.4473L23.1826 34.7102C24.2552 29.7756 26.9466 27.31 31.2404 27.31C35.5342 27.31 37.0843 29.6142 36.2798 34.2225L31.623 62.0034H50.0704L55.1915 32.1403C55.6428 29.483 55.839 27.0477 55.7769 24.831C55.4466 25.0597 54.9724 25.2548 54.3249 25.2548H54.3184Z" fill="#F53838"/>
<path d="M86.0554 12.2238C83.073 14.1411 80.8525 16.859 79.3809 20.3572L81.1076 10.3771H62.6603L62.6341 10.5217C64.0992 13.0613 65.1358 15.8801 65.6165 18.8906C65.7572 19.7316 65.8128 20.5557 65.8716 21.3529C65.8912 21.6657 65.9109 21.9718 65.9403 22.2846C65.9861 22.6445 66.1234 23.6368 65.3451 24.3937C64.7303 24.9958 63.9618 25.2952 63.0723 25.2952C62.7813 25.2952 62.5196 25.2682 62.3038 25.2413C62.1893 25.2279 62.0749 25.2077 61.967 25.2077C61.8067 25.2413 61.6432 25.2548 61.4797 25.2548C61.3587 25.2548 60.7374 25.2346 60.1716 24.8444C60.1651 24.8377 60.1585 24.8377 60.152 24.831L60.1455 24.8646L53.7031 62.0034H72.1504L75.5188 42.6183C76.4213 37.7476 78.5339 34.3032 81.863 32.258C85.2182 30.2028 88.8744 29.446 92.8215 29.9943L96.337 9.34778C92.452 9.34778 89.0281 10.3064 86.0522 12.2271L86.0554 12.2238Z" fill="#F53838"/>
<path d="M100.906 3.36707V3.86826H99.7579V7.35643H99.2477V3.86826H98.1064V3.36707H100.906Z" fill="#F53838"/>
<path d="M105.043 3.36707V7.35643H104.533V4.23827L103.264 6.41123H103.202L101.93 4.23827V7.3598H101.413V3.37043H101.995L103.235 5.48957L104.464 3.37043H105.04L105.043 3.36707Z" fill="#F53838"/>
<path d="M64.2466 22.4595C64.1517 21.3697 64.1125 20.2799 63.9424 19.2102C63.6318 17.266 63.0725 15.4058 62.291 13.6634C58.733 5.58715 50.6163 -0.0134307 41.4139 2.41903e-05C39.6185 0.0975719 37.4863 0.339759 35.4032 0.972138C33.3462 1.59779 33.3724 1.57761 34.1213 3.61602C34.2423 3.95575 34.3698 4.1643 34.5464 4.26185C34.7295 4.36613 34.9846 4.33922 35.364 4.20803C44.2426 1.18742 53.6281 4.65204 58.3994 12.6678C59.8514 15.1031 60.7409 17.7133 61.1104 20.4817C61.1987 21.1612 61.2576 21.8474 61.287 22.5436C61.3001 22.8228 61.2805 23.139 61.4832 23.25C61.5584 23.2971 61.6729 23.3072 61.8462 23.2769C62.6409 23.1323 63.5206 23.6671 64.24 22.9708C64.3218 22.8935 64.2596 22.6311 64.2466 22.4629V22.4595Z" fill="#F53838"/>
<path d="M41.3938 4.76642C40.295 4.73951 38.8103 4.95479 37.3452 5.32143C36.0502 5.64098 35.4616 5.79235 35.3471 6.23636C35.2458 6.60301 35.4747 7.18157 35.8867 8.25459C35.975 8.46987 36.0502 8.61451 36.1549 8.69187C36.3086 8.81633 36.5113 8.78942 36.8416 8.67169C39.6148 7.69285 42.4435 7.57512 45.3148 8.24786C51.1914 9.6169 56.0836 15.2982 56.584 21.3798C56.6657 22.3654 56.705 22.8363 56.9829 23.065C57.2445 23.2803 57.7122 23.287 58.6213 23.3139C59.0006 23.3274 59.2623 23.2803 59.4258 23.1491C59.6351 22.991 59.6939 22.6984 59.6678 22.2039C59.102 12.328 51.2273 4.78324 41.397 4.76978L41.3938 4.76642Z" fill="#F53838"/>
<path d="M41.649 9.49578C40.887 9.44868 39.9681 9.55969 39.0655 9.75142C37.6822 10.0508 37.087 10.182 36.9955 10.6596C36.9268 11.0263 37.1557 11.5981 37.5612 12.624C37.6364 12.8124 37.7149 12.9503 37.8098 13.0411C37.9798 13.206 38.1956 13.1992 38.5325 13.0815C39.7 12.6644 40.9263 12.4222 42.1559 12.5265C47.3654 12.9638 50.8318 16.1559 51.9862 21.4033C52.1203 22.0088 51.7376 22.8834 52.3721 23.1928C52.3786 23.1996 52.3917 23.1996 52.3982 23.2063C52.9836 23.4619 53.7423 23.2601 54.4225 23.2971C54.6776 23.3106 54.8476 23.2769 54.949 23.1726C55.07 23.0616 55.1092 22.8598 55.0961 22.5604C54.7659 15.2881 48.9024 9.5126 41.649 9.49914V9.49578Z" fill="#F53838"/>
<path d="M39.7686 14.4135C38.8922 14.6288 38.575 14.7062 38.5946 15.0796C38.6011 15.2881 38.7156 15.5942 38.8987 16.0718C39.0066 16.3645 39.1604 16.6538 39.229 16.9531C39.3762 17.6057 39.7424 17.6259 40.2886 17.4812C40.5044 17.4241 40.7202 17.3837 40.9361 17.3568C40.9426 17.3501 40.9492 17.3433 40.9557 17.3501C44.0134 16.906 46.7734 18.8267 47.3653 22.0492C47.3719 22.0694 47.3719 22.0895 47.3719 22.1064C47.5877 23.1895 47.9507 23.5628 48.8075 23.3072C49.5008 23.3005 49.9357 23.2937 50.1908 23.2029C50.6225 23.0448 50.5473 22.6345 50.351 21.5446C49.4452 16.5259 44.5562 13.2295 39.7719 14.4102L39.7686 14.4135Z" fill="#F53838"/>
<path d="M45.4694 22.3048C45.4236 20.5355 44.0174 19.1261 42.2711 19.1261C41.9473 19.1261 41.6367 19.1799 41.3456 19.2707C41.3325 19.2707 41.326 19.2707 41.3194 19.2775C40.0179 19.6878 39.099 20.9156 39.1055 22.4024C39.112 24.2221 40.5281 25.6786 42.2907 25.6786C44.0435 25.6719 45.489 24.1851 45.4759 22.3822C45.4759 22.362 45.4759 22.3351 45.4694 22.3183C45.4694 22.3183 45.4694 22.3138 45.4694 22.3048Z" fill="#F53838"/>
</svg>
