<svg width="214" height="62" viewBox="0 0 214 62" fill="none" xmlns="http://www.w3.org/2000/svg">
<g clip-path="url(#clip0_307_130)">
<path d="M54.3184 25.2548C54.2562 25.2548 54.1843 25.2548 54.1156 25.2481H54.0339C53.8932 25.2481 53.7559 25.2615 53.6087 25.2683C53.3929 25.2817 53.1705 25.2952 52.9547 25.2952C52.3693 25.2952 51.8951 25.2043 51.4439 25.0092C51.3163 24.9554 51.2019 24.8915 51.0939 24.8276C50.4791 25.2178 49.7237 25.2582 48.8408 25.2649C48.5988 25.3187 48.3633 25.3423 48.1377 25.3423C47.7125 25.3423 47.1239 25.2447 46.5843 24.8478C46.3488 25.2985 46.0513 25.7156 45.6948 26.089C44.7235 27.088 43.4482 27.6363 42.0845 27.643H42.0779C39.2786 27.643 37.0026 25.2985 36.996 22.4158C36.9895 21.1612 37.4015 19.9738 38.17 19.042C37.7187 18.7023 37.3525 18.1809 37.1726 17.4039C37.153 17.3333 37.1105 17.2525 37.0778 17.1684C37.0222 17.044 36.9699 16.9195 36.9175 16.7951C36.6559 16.1089 36.391 15.4058 36.512 14.6591C36.1621 14.3967 35.8318 13.9864 35.5931 13.3607L35.5669 13.3035C35.1091 12.143 34.7494 11.2348 34.9129 10.3401C34.939 10.145 34.9881 9.95999 35.0764 9.76489C34.8802 9.82208 34.684 9.88935 34.491 9.95999C31.5086 10.9792 28.8564 12.7855 26.5346 15.3789L27.3979 10.3872H8.95387L0 62H18.4473L23.1826 34.7102C24.2552 29.7756 26.9466 27.31 31.2404 27.31C35.5342 27.31 37.0843 29.6142 36.2798 34.2225L31.623 62.0034H50.0704L55.1915 32.1403C55.6428 29.483 55.839 27.0477 55.7769 24.831C55.4466 25.0597 54.9724 25.2548 54.3249 25.2548H54.3184Z" fill="#F53838"/>
<path d="M86.0554 12.2238C83.073 14.1411 80.8525 16.859 79.3809 20.3572L81.1076 10.3771H62.6603L62.6341 10.5217C64.0992 13.0613 65.1358 15.8801 65.6165 18.8906C65.7572 19.7316 65.8128 20.5557 65.8716 21.3529C65.8912 21.6657 65.9109 21.9718 65.9403 22.2846C65.9861 22.6445 66.1234 23.6368 65.3451 24.3937C64.7303 24.9958 63.9618 25.2952 63.0723 25.2952C62.7813 25.2952 62.5196 25.2682 62.3038 25.2413C62.1893 25.2279 62.0749 25.2077 61.967 25.2077C61.8067 25.2413 61.6432 25.2548 61.4797 25.2548C61.3587 25.2548 60.7374 25.2346 60.1716 24.8444C60.1651 24.8377 60.1585 24.8377 60.152 24.831L60.1455 24.8646L53.7031 62.0034H72.1504L75.5188 42.6183C76.4213 37.7476 78.5339 34.3032 81.863 32.258C85.2182 30.2028 88.8744 29.446 92.8215 29.9943L96.337 9.34778C92.452 9.34778 89.0281 10.3064 86.0522 12.2271L86.0554 12.2238Z" fill="#F53838"/>
<path d="M100.906 3.36707V3.86826H99.7579V7.35643H99.2477V3.86826H98.1064V3.36707H100.906Z" fill="#F53838"/>
<path d="M105.043 3.36707V7.35643H104.533V4.23827L103.264 6.41123H103.202L101.93 4.23827V7.3598H101.413V3.37043H101.995L103.235 5.48957L104.464 3.37043H105.04L105.043 3.36707Z" fill="#F53838"/>
<path d="M64.2466 22.4595C64.1517 21.3697 64.1125 20.2799 63.9424 19.2102C63.6318 17.266 63.0725 15.4058 62.291 13.6634C58.733 5.58715 50.6163 -0.0134307 41.4139 2.41903e-05C39.6185 0.0975719 37.4863 0.339759 35.4032 0.972138C33.3462 1.59779 33.3724 1.57761 34.1213 3.61602C34.2423 3.95575 34.3698 4.1643 34.5464 4.26185C34.7295 4.36613 34.9846 4.33922 35.364 4.20803C44.2426 1.18742 53.6281 4.65204 58.3994 12.6678C59.8514 15.1031 60.7409 17.7133 61.1104 20.4817C61.1987 21.1612 61.2576 21.8474 61.287 22.5436C61.3001 22.8228 61.2805 23.139 61.4832 23.25C61.5584 23.2971 61.6729 23.3072 61.8462 23.2769C62.6409 23.1323 63.5206 23.6671 64.24 22.9708C64.3218 22.8935 64.2596 22.6311 64.2466 22.4629V22.4595Z" fill="#F53838"/>
<path d="M41.3938 4.76642C40.295 4.73951 38.8103 4.95479 37.3452 5.32143C36.0502 5.64098 35.4616 5.79235 35.3471 6.23636C35.2458 6.60301 35.4747 7.18157 35.8867 8.25459C35.975 8.46987 36.0502 8.61451 36.1549 8.69187C36.3086 8.81633 36.5113 8.78942 36.8416 8.67169C39.6148 7.69285 42.4435 7.57512 45.3148 8.24786C51.1914 9.6169 56.0836 15.2982 56.584 21.3798C56.6657 22.3654 56.705 22.8363 56.9829 23.065C57.2445 23.2803 57.7122 23.287 58.6213 23.3139C59.0006 23.3274 59.2623 23.2803 59.4258 23.1491C59.6351 22.991 59.6939 22.6984 59.6678 22.2039C59.102 12.328 51.2273 4.78324 41.397 4.76978L41.3938 4.76642Z" fill="#F53838"/>
<path d="M41.649 9.49578C40.887 9.44868 39.9681 9.55969 39.0655 9.75142C37.6822 10.0508 37.087 10.182 36.9955 10.6596C36.9268 11.0263 37.1557 11.5981 37.5612 12.624C37.6364 12.8124 37.7149 12.9503 37.8098 13.0411C37.9798 13.206 38.1956 13.1992 38.5325 13.0815C39.7 12.6644 40.9263 12.4222 42.1559 12.5265C47.3654 12.9638 50.8318 16.1559 51.9862 21.4033C52.1203 22.0088 51.7376 22.8834 52.3721 23.1928C52.3786 23.1996 52.3917 23.1996 52.3982 23.2063C52.9836 23.4619 53.7423 23.2601 54.4225 23.2971C54.6776 23.3106 54.8476 23.2769 54.949 23.1726C55.07 23.0616 55.1092 22.8598 55.0961 22.5604C54.7659 15.2881 48.9024 9.5126 41.649 9.49914V9.49578Z" fill="#F53838"/>
<path d="M39.7686 14.4135C38.8922 14.6288 38.575 14.7062 38.5946 15.0796C38.6011 15.2881 38.7156 15.5942 38.8987 16.0718C39.0066 16.3645 39.1604 16.6538 39.229 16.9531C39.3762 17.6057 39.7424 17.6259 40.2886 17.4812C40.5044 17.4241 40.7202 17.3837 40.9361 17.3568C40.9426 17.3501 40.9492 17.3433 40.9557 17.3501C44.0134 16.906 46.7734 18.8267 47.3653 22.0492C47.3719 22.0694 47.3719 22.0895 47.3719 22.1064C47.5877 23.1895 47.9507 23.5628 48.8075 23.3072C49.5008 23.3005 49.9357 23.2937 50.1908 23.2029C50.6225 23.0448 50.5473 22.6345 50.351 21.5446C49.4452 16.5259 44.5562 13.2295 39.7719 14.4102L39.7686 14.4135Z" fill="#F53838"/>
<path d="M45.4694 22.3048C45.4236 20.5355 44.0174 19.1261 42.2711 19.1261C41.9473 19.1261 41.6367 19.1799 41.3456 19.2707C41.3325 19.2707 41.326 19.2707 41.3194 19.2775C40.0179 19.6878 39.099 20.9156 39.1055 22.4024C39.112 24.2221 40.5281 25.6786 42.2907 25.6786C44.0435 25.6719 45.489 24.1851 45.4759 22.3822C45.4759 22.362 45.4759 22.3351 45.4694 22.3183C45.4694 22.3183 45.4694 22.3138 45.4694 22.3048Z" fill="#F53838"/>
<path d="M109.124 9.45538H119.504V11.4736H109.124V9.45538ZM113.28 10.6932H115.344V24.5854H113.28V10.6932Z" fill="#F53838"/>
<path d="M121.528 9.45538H123.592V24.5887H121.528V9.45538ZM122.529 9.45538H130.976V11.4736H122.529V9.45538ZM122.529 16.0617H129.864V18.0799H122.529V16.0617ZM122.529 22.5671H130.976V24.5854H122.529V22.5671Z" fill="#F53838"/>
<path d="M136.041 24.0438C135.27 23.5796 134.671 22.9203 134.246 22.066C133.821 21.2116 133.608 20.2226 133.608 19.0992V14.9483C133.608 13.8249 133.821 12.8359 134.246 11.9815C134.671 11.1272 135.27 10.4679 136.041 10.0003C136.813 9.53276 137.709 9.2973 138.726 9.2973C139.57 9.2973 140.345 9.48231 141.055 9.85568C141.764 10.2291 142.356 10.7538 142.83 11.4333C143.305 12.1127 143.628 12.8998 143.798 13.7946H141.683C141.555 13.3237 141.339 12.8998 141.042 12.5298C140.741 12.1598 140.388 11.8739 139.985 11.6721C139.583 11.4703 139.161 11.3694 138.73 11.3694C138.128 11.3694 137.605 11.5174 137.15 11.8167C136.695 12.1161 136.346 12.5332 136.097 13.0714C135.849 13.6096 135.724 14.2352 135.724 14.9483V19.0992C135.724 19.8055 135.849 20.4312 136.097 20.9728C136.346 21.5143 136.699 21.9314 137.15 22.2274C137.601 22.5234 138.128 22.6681 138.73 22.6681C139.168 22.6681 139.586 22.5739 139.989 22.3855C140.391 22.1972 140.741 21.9213 141.042 21.5513C141.342 21.1847 141.555 20.7474 141.683 20.2395H143.798C143.628 21.1342 143.305 21.9213 142.827 22.6008C142.35 23.2803 141.755 23.805 141.045 24.1784C140.335 24.5484 139.563 24.7368 138.73 24.7368C137.713 24.7368 136.816 24.5047 136.045 24.0405L136.041 24.0438Z" fill="#F53838"/>
<path d="M146.529 9.45538H148.593V24.5887H146.529V9.45538ZM147.814 16.1256H155.98V18.1439H147.814V16.1256ZM154.888 9.45538H156.951V24.5887H154.888V9.45538Z" fill="#F53838"/>
<path d="M117.264 31.7401H119.958L122.826 45.1209L124.537 31.7401H128.049L124.615 51.4111H121.368L118.699 38.195L115.871 51.4111H112.61L109.189 31.7401H112.702L114.399 45.1209L117.267 31.7401H117.264Z" fill="#F53838"/>
<path d="M133.111 51.4111H129.625V31.7401H133.111V51.4111Z" fill="#F53838"/>
<path d="M136.14 31.7401H139.56V51.4111H136.14V31.7401ZM137.52 31.7401H146.66V35.134H137.52V31.7401ZM137.52 40.1292H145.607V43.5097H137.52V40.1292Z" fill="#F53838"/>
<path d="M152.118 51.4111H148.632V31.7401H152.118V51.4111Z" fill="#F53838"/>
<path d="M171.094 34.8919L164.783 48.0137H171.294V51.4077H160.97V48.2559L167.294 35.134H161.205V31.7401H171.094V34.8919Z" fill="#F53838"/>
<path d="M176.017 50.8964C175.124 50.4187 174.434 49.7325 173.953 48.8344C173.472 47.9363 173.23 46.8868 173.23 45.6894V37.4651C173.23 36.2575 173.472 35.2047 173.953 34.3133C174.434 33.4219 175.124 32.7357 176.017 32.258C176.913 31.7804 177.959 31.5416 179.159 31.5416C180.36 31.5416 181.409 31.7804 182.302 32.258C183.195 32.7357 183.885 33.4219 184.366 34.3133C184.846 35.2047 185.088 36.2575 185.088 37.4651V45.6894C185.088 46.8902 184.846 47.9363 184.366 48.8344C183.882 49.7325 183.195 50.4187 182.302 50.8964C181.406 51.374 180.36 51.6129 179.159 51.6129C177.959 51.6129 176.909 51.374 176.017 50.8964ZM180.448 47.7715C180.817 47.5629 181.095 47.2669 181.288 46.8767C181.481 46.4899 181.576 46.0291 181.576 45.4976V37.6366C181.576 37.1152 181.478 36.6578 181.288 36.271C181.095 35.8841 180.814 35.5848 180.448 35.3728C180.082 35.1609 179.65 35.0533 179.159 35.0533C178.669 35.0533 178.24 35.1609 177.877 35.3728C177.514 35.5848 177.233 35.8841 177.037 36.271C176.841 36.6578 176.739 37.1152 176.739 37.6366V45.4976C176.739 46.0291 176.838 46.4899 177.037 46.8767C177.233 47.2636 177.514 47.5629 177.877 47.7715C178.24 47.98 178.669 48.081 179.159 48.081C179.65 48.081 180.082 47.9767 180.448 47.7715Z" fill="#F53838"/>
<path d="M187.92 31.7401H191.393L197.207 45.8239L196.864 46.2713V31.7434H200.072V51.401H196.56L190.798 37.8048L191.115 37.3575V51.401H187.92V31.7434V31.7401Z" fill="#F53838"/>
<path d="M203.358 31.7401H206.779V51.4111H203.358V31.7401ZM204.725 31.7401H213.996V35.1609H204.725V31.7401ZM204.725 39.9408H212.947V43.3348H204.725V39.9408ZM204.725 47.9902H213.996V51.4111H204.725V47.9902Z" fill="#F53838"/>
</g>
<defs>
<clipPath id="clip0_307_130">
<rect width="214" height="62" fill="white"/>
</clipPath>
</defs>
</svg>
