<svg width="71" height="71" viewBox="0 0 71 71" fill="none" xmlns="http://www.w3.org/2000/svg">
<g opacity="0.8" clip-path="url(#clip0_340_165)">
<path d="M41.7092 33.5297C45.8206 33.5207 49.9328 33.5118 54.0442 33.5028C54.6577 33.5013 55.2711 33.4939 55.8845 33.5051C57.2799 33.5312 58.067 34.3287 58.0737 35.7136C58.0766 36.418 58.0737 37.1223 58.0737 37.8267C58.0737 47.8459 58.0602 57.8658 58.0908 67.8849C58.0945 69.117 57.7226 69.9936 56.5732 70.4855H35.5674C35.5667 65.3552 35.5652 60.2256 35.5645 55.0953C36.4589 55.7974 37.211 56.6493 38.0092 57.4499C38.7039 58.1468 39.4731 58.4293 40.4093 58.064C41.2903 57.7212 41.7048 57.0004 41.7055 55.8891C41.707 48.4354 41.7077 40.9818 41.7085 33.5282L41.7092 33.5297Z" fill="#CF004F"/>
<path d="M35.5651 55.0963C35.5658 60.2267 35.5673 65.3562 35.568 70.4866H14.4258C13.2631 69.8538 13.0178 68.8498 13.0245 67.5856C13.0678 59.1839 13.0484 50.7814 13.0499 42.3797C13.1371 42.2038 13.3115 42.1389 13.468 42.048C16.6642 40.2025 19.8528 38.3435 23.0586 36.5137C24.8259 35.5045 26.5432 34.4065 28.3708 33.5039C28.7204 33.5151 29.07 33.5263 29.4188 33.5374C29.4203 41.0343 29.4233 48.5304 29.4203 56.0273C29.4203 56.9977 29.8377 57.6827 30.7351 58.0509C31.6012 58.4065 32.3183 58.1337 32.9608 57.5083C33.8224 56.6698 34.7019 55.8506 35.574 55.0225C35.574 55.0471 35.571 55.071 35.5658 55.0956L35.5651 55.0963Z" fill="#E53950"/>
<path d="M70.4873 27.7935C70.0319 29.0338 69.1241 29.4863 67.8346 29.4348C66.3945 29.3774 66.396 29.4222 66.3901 30.8779C66.3886 31.261 66.4177 31.6433 66.2939 32.0242C65.9794 32.9895 65.0469 33.6335 64.1137 33.5008C63.0978 33.3569 62.339 32.5326 62.3055 31.5114C62.2876 30.9673 62.2816 30.421 62.3055 29.8768C62.3219 29.5109 62.1758 29.4028 61.8299 29.4162C61.3089 29.4371 60.7849 29.4371 60.2639 29.4177C59.0721 29.3737 58.1859 28.4614 58.2105 27.3217C58.2343 26.1925 59.0967 25.3614 60.2848 25.3331C60.7387 25.3219 61.1971 25.2906 61.6458 25.3398C62.2145 25.4024 62.3487 25.1602 62.3077 24.6474C62.2697 24.1741 62.2861 23.6941 62.3047 23.2178C62.3487 22.0885 63.2111 21.2508 64.3202 21.2403C65.4189 21.2306 66.3215 22.0647 66.3841 23.1768C66.4132 23.697 66.4244 24.2233 66.3834 24.742C66.3439 25.2392 66.5421 25.3868 67.0042 25.3353C67.2733 25.3055 67.5513 25.3547 67.8204 25.3257C69.0764 25.1907 69.9641 25.6901 70.4873 26.8387V27.7935Z" fill="#FEB54C"/>
<path d="M28.3702 33.5047C26.5426 34.4074 24.8252 35.5053 23.058 36.5145C19.8529 38.3444 16.6643 40.2033 13.4674 42.0488C13.3109 42.139 13.1365 42.2046 13.0493 42.3805C12.049 42.7629 11.1829 43.3927 10.2556 43.9078C8.88417 44.6688 7.82575 44.4191 7.03642 43.0841C5.03884 39.7061 3.045 36.3259 1.05562 32.9427C0.319206 31.6898 0.624805 30.5792 1.90161 29.839C3.727 28.7814 5.55911 27.7356 7.38226 26.6757C7.61034 26.543 7.89731 26.4715 8.01359 26.1875C8.43323 26.192 8.72317 25.9043 9.04517 25.7075C10.4733 24.8347 12.0043 24.1333 13.3578 23.1375C15.5939 22.0351 17.6944 20.6912 19.8619 19.4673C19.9528 19.4159 20.0102 19.3063 20.0832 19.2236C20.3523 19.24 20.5536 19.076 20.7653 18.9538C22.5258 17.9378 24.2826 16.9159 26.0409 15.8955C28.2636 14.5971 30.5578 13.4187 32.6858 11.9593C32.776 11.9705 32.8334 11.9354 32.8461 11.8408L32.8446 11.8452C33.1375 11.8825 33.3462 11.6991 33.5765 11.568C34.234 11.1945 34.8921 10.8233 35.5503 10.4521C35.5555 10.7704 35.5652 11.0879 35.5652 11.4062C35.5689 17.3609 35.5711 23.3149 35.5741 29.2696C33.4155 30.5195 31.2555 31.768 29.0984 33.0217C28.8472 33.1678 28.6124 33.343 28.3694 33.5047H28.3702Z" fill="#FE641A"/>
<path d="M35.5746 29.2688C35.5717 23.3141 35.5694 17.3601 35.5657 11.4054C35.5657 11.0872 35.556 10.7696 35.5508 10.4514C35.5605 10.4171 35.5694 10.3828 35.5761 10.3478C36.4355 9.85581 37.2942 9.36462 38.1536 8.87268C40.1176 7.73899 42.0802 6.60454 44.0449 5.47234C45.4224 4.67778 46.5098 4.96176 47.3089 6.34143C49.2401 9.67767 51.1669 13.0162 53.0877 16.3576C53.9292 17.8208 53.6497 18.8695 52.188 19.7147C46.8132 22.8236 41.4339 25.9251 36.0546 29.028C35.8996 29.1175 35.7341 29.189 35.5739 29.2688H35.5746Z" fill="#E53950"/>
<path d="M35.5765 10.3477C35.569 10.3827 35.5608 10.417 35.5511 10.4513C34.893 10.8233 34.2348 11.1944 33.5774 11.5671C33.3471 11.6976 33.1384 11.8817 32.8454 11.8444C32.9416 11.6938 33.0333 11.5388 33.1354 11.3927C34.205 9.86025 34.2132 7.84032 33.1525 6.43307C32.0554 4.97738 30.2367 4.39898 28.5544 4.97142C26.7924 5.57069 25.6952 7.1598 25.7585 9.10296C25.8323 11.3674 25.9456 13.6303 26.0418 15.894C24.2835 16.9144 22.5266 17.9363 20.7661 18.9522C20.5544 19.0744 20.3532 19.2384 20.0833 19.2213C19.824 19.0849 19.5586 18.9581 19.3059 18.8106C17.4254 17.7149 15.6589 16.4194 13.7023 15.4631C11.8285 14.5471 9.77796 15.2529 8.63979 17.0873C7.60001 18.7636 7.95629 20.9908 9.4649 22.2631C10.612 23.2313 11.9283 23.4363 13.3587 23.1359C12.0044 24.1325 10.4741 24.8331 9.04601 25.7059C8.72401 25.9027 8.43332 26.1904 8.01443 26.1859C5.80145 24.9911 4.51942 23.0778 4.09755 20.668C3.29628 16.0915 6.22779 11.9301 10.7864 11.0812C12.7631 10.7129 14.6228 11.1691 16.3357 12.2037C17.9874 13.201 19.6279 14.2169 21.2752 15.2216C21.4444 15.3252 21.5949 15.4766 21.873 15.4803C21.9639 14.9481 21.8625 14.4204 21.8394 13.8904C21.7664 12.2573 21.6829 10.6235 21.6702 8.98967C21.6352 4.22903 25.4373 0.499985 30.1972 0.670673C32.2887 0.745954 34.1297 1.51219 35.5772 3.08565C35.5772 5.50659 35.5772 7.92678 35.5765 10.3477Z" fill="#FDD744"/>
<path d="M41.7085 33.5303C41.7077 40.9839 41.7062 48.4375 41.7055 55.8912C41.7055 57.0025 41.2903 57.7225 40.4093 58.0661C39.4724 58.4314 38.7039 58.1481 38.0092 57.4519C37.211 56.6514 36.4589 55.7995 35.5645 55.0973C35.5697 55.0735 35.5719 55.0489 35.5727 55.0243C35.5712 47.8614 35.5697 40.6977 35.5682 33.534C37.6149 33.5325 39.6625 33.5318 41.7092 33.5303H41.7085Z" fill="#FEB54C"/>
<path d="M35.5687 33.5342C35.5702 40.6979 35.5717 47.8608 35.5732 55.0245C34.7011 55.8518 33.8216 56.6717 32.9599 57.5103C32.3174 58.1356 31.6004 58.4084 30.7343 58.0529C29.8369 57.6839 29.4187 56.9989 29.4195 56.0292C29.4224 48.5324 29.4195 41.0363 29.418 33.5394C31.4677 33.5379 33.5182 33.5364 35.568 33.5349L35.5687 33.5342Z" fill="#FDD744"/>
<path d="M53.9735 27.3284C53.9884 28.4554 53.0381 29.4184 51.9096 29.4199C50.811 29.4214 49.886 28.4852 49.8867 27.3724C49.8867 26.2387 50.77 25.345 51.9022 25.3331C53.021 25.3219 53.9586 26.2246 53.9735 27.3277V27.3284Z" fill="#FEB54C"/>
<path d="M60.1513 13.0557C61.2693 13.0736 62.1801 14.006 62.1593 15.1106C62.1384 16.2115 61.1903 17.1485 60.1051 17.1425C58.9706 17.1358 58.0441 16.1728 58.0739 15.0324C58.1038 13.9069 59.0168 13.0385 60.1513 13.0564V13.0557Z" fill="#FEB54C"/>
<path d="M35.5762 10.348C35.5762 7.92707 35.5762 5.50688 35.5769 3.08594C37.0937 4.37989 37.7914 6.08155 38.0217 8.01353C38.056 8.30199 37.9718 8.60758 38.1536 8.87293C37.2942 9.36487 36.4348 9.85607 35.5762 10.348Z" fill="#FEB54C"/>
<path d="M26.0417 15.8944C25.9456 13.6307 25.8315 11.3678 25.7585 9.10341C25.6951 7.16025 26.7923 5.57114 28.5543 4.97187C30.2366 4.39943 32.056 4.97783 33.1525 6.43352C34.2124 7.84077 34.2049 9.8607 33.1353 11.3932C33.0332 11.54 32.9415 11.6943 32.8454 11.8449L32.8469 11.8404C32.7932 11.8799 32.7403 11.9194 32.6866 11.9589C30.5586 13.4176 28.2644 14.596 26.0417 15.8952V15.8944Z" fill="#FEFEFE"/>
<path d="M13.3586 23.1367C11.9283 23.4371 10.6127 23.2313 9.46487 22.2639C7.957 20.9915 7.59998 18.7644 8.63976 17.0881C9.77718 15.2545 11.8277 14.5486 13.7023 15.4639C15.6596 16.4202 17.4253 17.7157 19.3059 18.8113C19.5586 18.9589 19.8239 19.0856 20.0833 19.222C20.0103 19.3048 19.9529 19.4151 19.8619 19.4658C17.6944 20.6897 15.5947 22.0343 13.3579 23.1359L13.3586 23.1367Z" fill="#FEFEFE"/>
<path d="M32.6865 11.9584C32.7402 11.9189 32.7931 11.8793 32.8468 11.8398C32.8341 11.9345 32.7767 11.9688 32.6865 11.9584Z" fill="#FDD744"/>
</g>
<defs>
<clipPath id="clip0_340_165">
<rect width="70" height="70" fill="white" transform="translate(0.5 0.5)"/>
</clipPath>
</defs>
</svg>
