<svg width="41" height="42" viewBox="0 0 41 42" fill="none" xmlns="http://www.w3.org/2000/svg">
<g opacity="1">
<path d="M22.3698 34.8984C22.0662 34.8983 21.7751 34.7776 21.5604 34.5629L7.00323 20.0046C6.84146 19.8428 6.73188 19.6362 6.68862 19.4116C6.64536 19.1869 6.67041 18.9544 6.76054 18.7442C9.13026 13.2148 17.0156 5.47025 22.2176 2.49721C23.7791 1.60542 25.9622 1.03646 28.7063 0.805206C29.0037 0.789283 29.2956 0.889794 29.5202 1.08544C29.7448 1.28109 29.8844 1.55649 29.9094 1.8533C29.9344 2.15011 29.8429 2.44499 29.6542 2.67545C29.4655 2.90592 29.1945 3.05386 28.8986 3.08793C26.4888 3.29056 24.6228 3.76107 23.3532 4.48572C18.8084 7.08327 11.6625 14.0562 9.18865 18.9536L22.6114 32.3775C27.5088 29.9025 34.4829 22.7567 37.0793 18.2118C39.3231 14.284 38.4943 6.01632 38.1611 3.4016C36.6065 3.20256 35.0439 3.07155 33.4778 3.00894C33.1745 2.99703 32.8883 2.86516 32.6822 2.64232C32.4762 2.41949 32.367 2.12394 32.3788 1.82064C32.3817 1.66954 32.4152 1.52059 32.4771 1.38272C32.539 1.24486 32.6281 1.1209 32.7391 1.01829C32.85 0.91567 32.9805 0.836504 33.1228 0.785531C33.2651 0.734558 33.4162 0.712826 33.5671 0.721637C36.2173 0.824668 38.3958 1.11659 39.1227 1.22306C39.2507 1.21634 39.3788 1.23342 39.5005 1.27343C39.7295 1.34669 39.9298 1.48293 40.0741 1.66266C40.1713 1.77613 40.2445 1.90816 40.2893 2.05074C40.3328 2.18812 40.3511 2.33007 40.3442 2.46974C40.6247 4.38956 41.9058 14.3768 39.0655 19.3463C36.0925 24.5483 28.3479 32.4348 22.8186 34.8045C22.6771 34.8665 22.5243 34.8985 22.3698 34.8984Z" fill="#ffffff"/>
<path d="M7.81341 20.3393C7.72278 20.3393 7.63248 20.3286 7.54439 20.3073L0.970973 18.7252C0.777884 18.6787 0.60019 18.5829 0.455348 18.447C0.310506 18.3112 0.203497 18.14 0.144835 17.9502C0.0861734 17.7605 0.0778756 17.5588 0.120757 17.3649C0.163638 17.171 0.256222 16.9916 0.389416 16.8443C5.30631 11.4099 11.5912 11.4843 11.8534 11.4763C12.0037 11.4794 12.152 11.5122 12.2897 11.5726C12.4274 11.633 12.5518 11.72 12.6559 11.8285C12.76 11.9371 12.8417 12.0651 12.8963 12.2052C12.9509 12.3453 12.9773 12.4948 12.9741 12.6452C12.9658 12.9473 12.839 13.2341 12.6213 13.4437C12.4035 13.6533 12.1121 13.769 11.8099 13.7659C11.7515 13.7648 7.44937 13.7419 3.53875 16.9885L8.08015 18.0818C8.35422 18.1455 8.59517 18.3081 8.75691 18.5384C8.91864 18.7686 8.98981 19.0504 8.95679 19.3299C8.92377 19.6093 8.78889 19.8668 8.57794 20.053C8.367 20.2393 8.0948 20.3412 7.81341 20.3393ZM24.2458 41.7653C23.9887 41.7657 23.739 41.6793 23.5371 41.5201C23.3352 41.361 23.1928 41.1384 23.1331 40.8884L21.551 34.315C21.5121 34.1676 21.5031 34.014 21.5244 33.8631C21.5457 33.7122 21.597 33.567 21.6751 33.4362C21.7533 33.3054 21.8568 33.1914 21.9795 33.1011C22.1023 33.0108 22.2418 32.9459 22.39 32.9102C22.5382 32.8746 22.692 32.8688 22.8424 32.8934C22.9928 32.9179 23.1368 32.9723 23.2659 33.0532C23.3951 33.1342 23.5067 33.2401 23.5944 33.3647C23.6821 33.4894 23.744 33.6303 23.7764 33.7792L24.8697 38.3206C28.1118 34.4157 28.0935 30.0976 28.0923 30.0495C28.0877 29.7462 28.2036 29.4536 28.4146 29.2357C28.6256 29.0179 28.9144 28.8926 29.2176 28.8875H29.2383C29.5376 28.8874 29.825 29.0046 30.039 29.2139C30.253 29.4231 30.3765 29.7079 30.3831 30.0071C30.3876 30.2716 30.4529 36.5508 25.0151 41.4711C24.8034 41.6602 24.5296 41.7649 24.2458 41.7653ZM38.2444 18.9999C38.0242 18.9998 37.8088 18.9362 37.6239 18.8167C27.8885 12.5318 23.0907 4.40835 22.8904 4.06491C22.7533 3.8036 22.7223 3.49949 22.8039 3.21591C22.8855 2.93233 23.0733 2.69114 23.3282 2.54257C23.5832 2.394 23.8856 2.3495 24.1725 2.41834C24.4595 2.48717 24.7088 2.66404 24.8686 2.9121C24.9155 2.9911 29.6126 10.9188 38.866 16.8923C39.0733 17.0267 39.2317 17.2245 39.3174 17.4562C39.4032 17.688 39.4118 17.9412 39.3419 18.1782C39.272 18.4151 39.1273 18.6232 38.9296 18.7713C38.7318 18.9194 38.4914 18.9996 38.2444 18.9999ZM22.785 25.8034C21.821 25.8052 20.866 25.6165 19.9751 25.2482C19.0841 24.8798 18.2747 24.339 17.5934 23.6569C16.2183 22.2789 15.4459 20.4115 15.4459 18.4647C15.4459 16.5179 16.2183 14.6506 17.5934 13.2725C17.6997 13.1662 17.8259 13.0819 17.9647 13.0244C18.1036 12.9669 18.2525 12.9373 18.4028 12.9373C18.5531 12.9373 18.7019 12.9669 18.8408 13.0244C18.9797 13.0819 19.1059 13.1662 19.2121 13.2725C19.3184 13.3788 19.4027 13.505 19.4603 13.6438C19.5178 13.7827 19.5474 13.9316 19.5474 14.0819C19.5474 14.2322 19.5178 14.381 19.4603 14.5199C19.4027 14.6588 19.3184 14.785 19.2121 14.8912C18.2659 15.8398 17.7346 17.1249 17.7346 18.4647C17.7346 19.8045 18.2659 21.0896 19.2121 22.0382C20.1605 22.9843 21.4454 23.5157 22.785 23.5157C24.1247 23.5157 25.4096 22.9843 26.3579 22.0382C27.3041 21.0896 27.8355 19.8045 27.8355 18.4647C27.8355 17.1249 27.3041 15.8398 26.3579 14.8912C25.5187 14.0523 24.4112 13.5352 23.2292 13.4305C22.9314 13.3983 22.658 13.2507 22.4677 13.0193C22.2775 12.7879 22.1855 12.4911 22.2116 12.1927C22.2377 11.8942 22.3797 11.6179 22.6072 11.423C22.8347 11.2281 23.1295 11.1301 23.4284 11.1501C25.1466 11.3019 26.7566 12.0532 27.9767 13.2725C29.3518 14.6506 30.1241 16.5179 30.1241 18.4647C30.1241 20.4115 29.3518 22.2789 27.9767 23.6569C27.2954 24.339 26.486 24.8798 25.595 25.2482C24.7041 25.6165 23.7491 25.8052 22.785 25.8034Z" fill="#ffffff"/>
<path d="M15.5134 37.8019C15.2582 37.8018 15.0103 37.7165 14.8092 37.5594C14.608 37.4024 14.4651 37.1826 14.4031 36.935C14.3412 36.6874 14.3637 36.4263 14.4672 36.193C14.5706 35.9597 14.7491 35.7676 14.9742 35.6474C16.4407 34.8643 17.4527 33.2433 17.9816 30.8289C18.0465 30.5323 18.2267 30.2736 18.4824 30.1098C18.7381 29.946 19.0484 29.8905 19.345 29.9555C19.6417 30.0204 19.9003 30.2006 20.0641 30.4563C20.2279 30.712 20.2835 31.0223 20.2185 31.3189C19.5385 34.419 18.1373 36.5552 16.0514 37.6679C15.8859 37.7562 15.701 37.8022 15.5134 37.8019ZM10.0275 38.1923C9.93216 38.1923 9.83716 38.1804 9.74476 38.1568C8.40878 37.8168 7.48036 37.3497 7.44143 37.3302C7.38552 37.3017 7.33193 37.2687 7.28116 37.2318C6.61947 36.7464 4.93204 37.3749 4.00132 37.9519C3.99778 38.1503 3.94269 38.3445 3.84147 38.5152C3.74025 38.6859 3.59637 38.8274 3.42396 38.9258C3.25155 39.0241 3.05652 39.076 2.85803 39.0762C2.65954 39.0764 2.46439 39.0251 2.29175 38.9271C2.11911 38.8291 1.97491 38.688 1.8733 38.5175C1.77168 38.347 1.71615 38.1529 1.71215 37.9545C1.70815 37.756 1.75581 37.56 1.85047 37.3855C1.94513 37.211 2.08353 37.0642 2.25208 36.9593C2.34366 31.9268 3.92691 28.8942 5.09231 27.3339C4.79599 27.1164 4.52354 26.8681 4.27951 26.5932C4.09124 26.3781 3.99025 26.1004 3.99639 25.8146C4.00254 25.5288 4.11537 25.2557 4.31271 25.0489C7.53645 21.6729 11.7791 22.5338 11.9577 22.5715C12.5758 22.7043 12.9697 23.3122 12.838 23.9315C12.7737 24.2269 12.5956 24.485 12.3423 24.65C12.0891 24.815 11.781 24.8736 11.4848 24.813C11.3738 24.7901 9.10139 24.3551 6.99153 25.7667L7.02015 25.7678C7.25937 25.7676 7.49263 25.8424 7.68718 25.9816C7.88173 26.1208 8.02778 26.3174 8.10483 26.5439C8.18188 26.7703 8.18605 27.0153 8.11675 27.2442C8.04745 27.4732 7.90817 27.6747 7.71847 27.8204C7.61315 27.9051 5.22053 29.8833 4.65615 35.1345C5.83414 34.7338 7.34642 34.5117 8.54158 35.32C8.74421 35.415 9.41506 35.7115 10.3103 35.9393C10.4561 35.9763 10.5931 36.0417 10.7136 36.1317C10.8341 36.2217 10.9357 36.3346 11.0126 36.4638C11.0894 36.5931 11.1401 36.7363 11.1616 36.8851C11.1831 37.034 11.1751 37.1856 11.138 37.3314C11.0742 37.5775 10.9306 37.7955 10.7296 37.9513C10.5287 38.107 10.2818 38.1918 10.0275 38.1923Z" fill="#ffffff"/>
<path d="M8.26002 33.7928C8.05302 33.7923 7.85003 33.7357 7.67263 33.629C7.49522 33.5223 7.35002 33.3696 7.25246 33.187C7.15489 33.0044 7.1086 32.7988 7.1185 32.5921C7.1284 32.3853 7.19413 32.1851 7.3087 32.0127C7.54681 31.6555 7.89598 31.2674 8.31955 30.8873C8.4314 30.7869 8.56194 30.7095 8.7037 30.6595C8.84547 30.6096 8.99569 30.588 9.1458 30.5961C9.2959 30.6041 9.44294 30.6417 9.57852 30.7066C9.7141 30.7715 9.83558 30.8625 9.936 30.9743C10.0364 31.0862 10.1138 31.2167 10.1638 31.3585C10.2138 31.5003 10.2354 31.6505 10.2273 31.8006C10.2192 31.9507 10.1816 32.0977 10.1167 32.2333C10.0518 32.3689 9.96085 32.4904 9.849 32.5908C9.4735 32.9274 9.28919 33.1689 9.21364 33.2834C9.10895 33.4403 8.96712 33.5689 8.80075 33.6578C8.63439 33.7467 8.44864 33.7931 8.26002 33.7928ZM11.8615 31.2342C11.5866 31.2346 11.3206 31.1359 11.1124 30.9563C10.9042 30.7767 10.7675 30.5281 10.7275 30.256C10.6875 29.9839 10.7468 29.7066 10.8945 29.4746C11.0421 29.2426 11.2684 29.0716 11.5318 28.9927C12.2622 28.7729 12.9228 28.7397 13.4929 28.8954C13.6657 28.7786 14.1569 27.8319 14.3664 27.0271C14.4463 26.737 14.6373 26.4901 14.8979 26.3397C15.1586 26.1893 15.4679 26.1476 15.7591 26.2236C16.0502 26.2996 16.2998 26.4872 16.4537 26.7457C16.6076 27.0043 16.6535 27.313 16.5815 27.6052C16.4739 28.0173 15.8695 30.1146 14.5461 30.8805C14.2995 31.0275 14.0258 31.1231 13.7413 31.1617C13.4569 31.2002 13.1675 31.1809 12.8907 31.1049C12.8392 31.09 12.632 31.0533 12.1912 31.1861C12.0842 31.2179 11.9732 31.234 11.8615 31.2342Z" fill="#ffffff"/>
</g>
</svg>
